<svg width="24" height="24" viewBox="0 0 24 24" fill="none" xmlns="http://www.w3.org/2000/svg">
<path d="M7.04896 17.3182C6.75606 17.6111 6.75606 18.086 7.04896 18.3789C7.34185 18.6718 7.81672 18.6718 8.10962 18.3789L7.04896 17.3182ZM17.8071 8.68144C18.1 8.38855 18.1 7.91367 17.8071 7.62078C17.5142 7.32789 17.0393 7.32789 16.7464 7.62078L17.8071 8.68144ZM11.8186 6.79502C11.4044 6.79687 11.0701 7.13415 11.0719 7.54836C11.0738 7.96257 11.4111 8.29686 11.8253 8.29501L11.8186 6.79502ZM13.9495 7.53552L13.9528 8.28552L13.9495 7.53552ZM17.8923 11.4784L18.6423 11.4817L17.8923 11.4784ZM17.1328 13.6026C17.131 14.0168 17.4653 14.3541 17.8795 14.3559C18.2937 14.3578 18.631 14.0235 18.6328 13.6093L17.1328 13.6026ZM17.0748 7.97325L17.5338 7.38013L17.5338 7.38013L17.0748 7.97325ZM17.4546 8.35307L18.0477 7.89405L18.0477 7.89405L17.4546 8.35307ZM8.10962 18.3789L17.8071 8.68144L16.7464 7.62078L7.04896 17.3182L8.10962 18.3789ZM11.8253 8.29501L13.9528 8.28552L13.9461 6.78553L11.8186 6.79502L11.8253 8.29501ZM17.1423 11.475L17.1328 13.6026L18.6328 13.6093L18.6423 11.4817L17.1423 11.475ZM13.9528 8.28552C14.8188 8.28165 15.4049 8.28017 15.8494 8.32871C16.2787 8.3756 16.4799 8.46124 16.6158 8.56638L17.5338 7.38013C17.0894 7.03619 16.5762 6.89917 16.0122 6.83758C15.4632 6.77763 14.7768 6.78183 13.9461 6.78553L13.9528 8.28552ZM18.6423 11.4817C18.646 10.651 18.6502 9.96462 18.5903 9.41566C18.5287 8.85162 18.3917 8.33848 18.0477 7.89405L16.8615 8.81209C16.9666 8.94796 17.0523 9.14913 17.0991 9.5785C17.1477 10.023 17.1462 10.6091 17.1423 11.475L18.6423 11.4817ZM16.6158 8.56638C16.7077 8.63757 16.7903 8.72011 16.8615 8.81209L18.0477 7.89405C17.8989 7.70168 17.7262 7.52901 17.5338 7.38013L16.6158 8.56638Z" fill="black"/>
</svg>
