<svg width="141" height="112" fill="none" xmlns="http://www.w3.org/2000/svg"><path d="M5.22 30.643a41.4 41.4 0 0 1-2.674 1.342c-.682.455-.312 1.461.433 1.303 2.799-.75 5.652-1.976 8.42-2.874a226.382 226.382 0 0 1 8.27-2.843 325.942 325.942 0 0 1 16.752-5.42 446.753 446.753 0 0 1 33.915-8.912 445.322 445.322 0 0 1 34.27-6.51c3.021-.436 5.993-.86 8.915-1.275a61.03 61.03 0 0 1 4.265-.442c1.192-.254 2.948-.782 3.412.669.433 1.302.599 2.816.733 4.182a67.52 67.52 0 0 1 .796 4.478 273.237 273.237 0 0 1 1.444 8.988 5284.172 5284.172 0 0 1 6.679 39.48l.939-1.44c-27.879 6.546-55.199 14.987-81.78 25.44a653.06 653.06 0 0 0-22.325 9.237c.56.19 1.169.371 1.828.541-6.336-16.624-12.853-33.364-19.753-49.713A654.873 654.873 0 0 0 3.809 32.8c-.612-1.419-2.72-.35-2.108 1.068a1857.561 1857.561 0 0 1 20.082 49.798 664.747 664.747 0 0 1 5.354 14.2c.275.56 1.232.667 1.828.54 25.882-11.543 52.653-21.106 80.162-28.657a620.986 620.986 0 0 1 23.167-6.01c.595-.126 1.097-.697.939-1.438a4511.258 4511.258 0 0 0-6.346-36.452 1157.685 1157.685 0 0 0-3.068-18.093c-.355-2.403-.593-4.986-3.432-5.157-1.403-.012-2.744.273-3.967.378-1.61.24-3.181.418-4.712.537-23.883 3.372-47.568 8.407-70.726 15.188a443.308 443.308 0 0 0-19.403 6.138 385.682 385.682 0 0 0-9.399 3.392c-3.182 1.142-6.663 2.346-9.634 3.752.304.452.547.865.73 1.24a34.565 34.565 0 0 1 2.399-1.905c.415-.243-.04-.92-.456-.677z" fill="#575757"/><path d="M6.218 34.612c-.839-.286.227-1.132.556-1.047.447-.095.926-.042 1.372-.137.957.106 1.903.163 2.84.171 2.09.072 4.132.154 6.124.247 3.963.088 7.975.164 12.037.23 7.727.217 15.504.423 23.33.619 3.764.129 7.709.375 11.496-.12 3.638-.464 7.236-1.848 10.441-3.614 3.355-1.797 6.349-3.828 9.523-5.742a1301.68 1301.68 0 0 0 9.992-6.462c7.591-4.815 15.144-9.57 22.657-14.266 1.097-.698.241-2.53-.857-1.831l-21.41 13.536-10.972 6.98c-3.44 2.125-6.85 4.399-10.502 6.26-3.621 2.009-7.58 3.16-11.877 3.454-4.18.114-8.273-.1-12.484-.135-8.465-.267-16.968-.473-25.51-.62L8.937 32.02c-1.255-.043-3.647-.309-4.076 1.332-.29.836.26 1.958 1.303 1.737.298-.064.235-.36.054-.477zm44.907 12.764a2598.07 2598.07 0 0 1 9.791-3.01c1.459-.465 3.066-.962 4.641-1.606 1.31-.434 2.948-.782 4.163-1.66.117-.18.023-.624-.275-.561-1.553.02-3.128.665-4.587 1.13a702.05 702.05 0 0 1-4.79 1.638c-3.065.96-6.098 2.07-9.132 3.18-.564.275-.258.984.189.89zm3.354 6.259c4.469-.95 8.96-2.525 13.335-3.92a6748.6 6748.6 0 0 1 13.006-4.003 558.455 558.455 0 0 1 12.974-4.152l6.428-1.986 3.214-.993 1.725-.677.745-.158c.298-.063.475-.204.532-.423-.478-.053-.681.455-.289.836.573.498 1.521-.168 1.513-.941-.166-1.514-1.954-1.134-2.848-.944l-12.23 3.994c-8.251 2.683-16.454 5.356-24.607 8.019-4.672 1.458-9.376 2.767-13.773 4.786-.298.064-.172.657.275.562zm2.112 9.931c7.98-2.006 15.773-4.902 23.479-7.469a2081.64 2081.64 0 0 1 23.957-7.416 146.377 146.377 0 0 1 6.609-1.87c1.905-.56 4.32-.918 6.067-2.219.266-.211.14-.804-.338-.858-1.882-.064-3.873.824-5.629 1.352-1.944.62-3.949 1.2-6.013 1.743-3.888 1.24-7.826 2.49-11.814 3.75-7.876 2.5-15.78 5.11-23.714 7.83-4.194 1.51-8.568 2.905-12.699 4.713-.266.211-.172.656.095.444zm-.33 7.971c16.102-4.817 32.11-10.078 48.213-14.895a619.115 619.115 0 0 1 13.633-3.983c1.011-.37.696-1.852-.347-1.63a2075.567 2075.567 0 0 0-48.298 15.224 332.162 332.162 0 0 0-13.327 4.691c-.447.095-.14.805.126.593zm-6.28 26.121c-1.677 2.371.311 6.596 3.588 5.899 1.49-.316 2.43-1.756 2.593-3.185.226-1.132-.639-3.737-2.246-3.24-.415.243-.799.634-.555 1.047.157.742.816.911.856 1.832.009.773-.28 1.609-.994 1.916-2.023.739-3.131-2.278-2.34-3.686.32-.688-.582-1.27-.903-.582zm63.623-20.03c-2.893.305-5.07 3.246-4.918 6.157.151 2.912 2.772 4.988 5.76 5.128 2.988.14 5.535-1.796 6.01-4.686.313-1.46.147-2.975-.584-4.214-.55-1.122-1.79-2.563-3.162-2.426-.596.127-.917.815-.642 1.376.338.858 1.209 1.292 1.664 1.97.487.826.676 1.715.567 2.668-.037 2.022-1.636 3.291-3.635 3.406-2.031-.033-3.985-1.167-4.245-3.125-.355-2.404 1.171-4.742 3.374-5.365.596-.127.407-1.016-.189-.89z" fill="#575757"/></svg>