<svg aria-hidden="true" style="position:absolute;width:0;height:0" xmlns="http://www.w3.org/2000/svg" overflow="hidden"><defs><symbol id="icon-Category" viewBox="0 0 32 32"><path fill="none" stroke-width="2" d="M5.333 9.333c0-1.243 0-1.864.203-2.353a2.679 2.679 0 0 1 1.426-1.437l.018-.007c.489-.203 1.111-.203 2.353-.203s1.864 0 2.353.203a2.679 2.679 0 0 1 1.437 1.426l.007.018c.203.489.203 1.111.203 2.353s0 1.864-.203 2.353a2.677 2.677 0 0 1-1.427 1.437l-.018.007c-.489.203-1.111.203-2.353.203s-1.864 0-2.353-.203a2.677 2.677 0 0 1-1.437-1.427l-.007-.018c-.203-.489-.203-1.111-.203-2.353zm13.334 0c0-1.243 0-1.864.203-2.353a2.677 2.677 0 0 1 1.427-1.437l.017-.007c.489-.203 1.111-.203 2.353-.203s1.864 0 2.353.203a2.679 2.679 0 0 1 1.437 1.426l.007.018c.203.489.203 1.111.203 2.353s0 1.864-.203 2.353a2.677 2.677 0 0 1-1.427 1.437l-.017.007c-.489.203-1.111.203-2.353.203s-1.864 0-2.353-.203a2.677 2.677 0 0 1-1.437-1.427l-.007-.018c-.203-.489-.203-1.111-.203-2.353zM5.333 22.667c0-1.243 0-1.864.203-2.353a2.679 2.679 0 0 1 1.426-1.437l.018-.007c.489-.203 1.111-.203 2.353-.203s1.864 0 2.353.203a2.677 2.677 0 0 1 1.437 1.427l.007.017c.203.489.203 1.111.203 2.353s0 1.864-.203 2.353a2.677 2.677 0 0 1-1.427 1.437l-.018.007c-.489.203-1.111.203-2.353.203s-1.864 0-2.353-.203a2.677 2.677 0 0 1-1.437-1.427l-.007-.017c-.203-.489-.203-1.111-.203-2.353zm13.334 0c0-1.243 0-1.864.203-2.353a2.677 2.677 0 0 1 1.427-1.437l.017-.007c.489-.203 1.111-.203 2.353-.203s1.864 0 2.353.203a2.677 2.677 0 0 1 1.437 1.427l.007.017c.203.489.203 1.111.203 2.353s0 1.864-.203 2.353a2.677 2.677 0 0 1-1.427 1.437l-.017.007c-.489.203-1.111.203-2.353.203s-1.864 0-2.353-.203a2.677 2.677 0 0 1-1.437-1.427l-.007-.017c-.203-.489-.203-1.111-.203-2.353z"/></symbol><symbol id="icon-Edit" viewBox="0 0 32 32"><path d="M12.708 25.36zM7.3 26.399zm-1.807-5.204zm.654-3.47zm-.779 1.65l-.983-.185.983.187zm10.017 3.684zm-1.04 1.5l.652.759-.652-.76zM11.213 8.953zM25.88 28.001a1 1 0 0 0 0-2V28zm-8-2a1 1 0 0 0 0 2v-2zm1.705-12.214L14.52 22.56l1.733 1 5.064-8.773-1.733-1zm-12.572 4.44l5.064-8.773-1.732-1-5.064 8.773 1.732 1zm5.33 6.201c-1.461.572-2.457.957-3.227 1.137-.741.173-1.079.105-1.317-.033l-1 1.733c.871.503 1.805.473 2.773.248.941-.22 2.095-.673 3.499-1.223l-.728-1.863zm-7.836-3.081c.227 1.491.411 2.716.691 3.641.288.952.732 1.775 1.603 2.277l1-1.732c-.24-.137-.467-.395-.688-1.125-.229-.755-.392-1.811-.628-3.361l-1.977.3zm.776-4.12c-.429.743-.773 1.312-.896 1.964l1.965.371c.045-.24.165-.473.663-1.333l-1.733-1zm1.2 3.818c-.149-.983-.176-1.243-.131-1.484l-1.965-.369c-.123.652-.009 1.307.12 2.155l1.977-.301zm8.037 1.515c-.497.861-.64 1.081-.825 1.24l1.304 1.519c.504-.433.824-1.015 1.253-1.759l-1.732-1zm-1.448 3.733c.8-.313 1.423-.543 1.927-.976l-1.304-1.516c-.185.16-.424.267-1.351.628l.728 1.863zM18 7.867c1.113.643 1.86 1.077 2.373 1.473.493.38.649.635.712.872l1.933-.517c-.223-.829-.753-1.421-1.423-1.937-.645-.499-1.532-1.008-2.596-1.623l-1 1.733zm3.319 6.92c.613-1.064 1.127-1.948 1.437-2.703.32-.781.484-1.56.261-2.389l-1.932.517c.064.237.056.537-.18 1.112-.247.6-.676 1.349-1.32 2.463l1.733 1zM19 6.135c-1.064-.613-1.948-1.127-2.703-1.437-.781-.32-1.56-.484-2.389-.261l.517 1.932c.237-.064.537-.056 1.112.18.6.247 1.349.676 2.463 1.32l1-1.733zm-6.921 3.318c.643-1.113 1.077-1.86 1.473-2.373.38-.493.635-.649.872-.712l-.517-1.933c-.829.223-1.421.753-1.937 1.423-.499.645-1.008 1.532-1.623 2.596l1.733 1zm8.872 3.968l-9.237-5.333-1 1.732 9.237 5.333 1-1.733zM25.88 26h-8v2h8v-2z"/></symbol><symbol id="icon-Edit-Square" viewBox="0 0 32 32"><path d="M5.415 26.955zM3.94 25.48v.001zm19.979 1.475zm1.474-1.475zM3.94 6.976zm1.473-1.475zm6.598-.264a1 1 0 0 0-.012-2h-.013.001l.024 2zm15.646 13.67v-.012a1 1 0 0 0-2-.013v.001l2 .024zm-11.926 2.661zm-5.494-.397zm-.397-5.494v.001zm1.529-3.181zm-1.178 1.392zm8.721 6.151zm-1.392 1.178zm-2.853 6.011c-2.523 0-4.333 0-5.736-.153-1.384-.149-2.251-.436-2.928-.928l-1.176 1.617c1.076.781 2.333 1.131 3.888 1.3 1.536.165 3.475.164 5.952.164v-2zm-13-11c0 2.479-.001 4.416.165 5.952.168 1.553.517 2.813 1.299 3.888l1.619-1.176c-.493-.677-.78-1.544-.929-2.928-.152-1.403-.153-3.213-.153-5.736h-2zm4.336 9.919a5.715 5.715 0 0 1-1.242-1.237l-.011-.016-1.619 1.175a7.644 7.644 0 0 0 1.696 1.696l1.176-1.617zm8.664 3.08c2.477 0 4.416.001 5.951-.164 1.555-.169 2.813-.519 3.889-1.3l-1.176-1.617c-.677.492-1.544.779-2.928.928-1.403.152-3.213.153-5.736.153v2zm9.917-4.336a5.663 5.663 0 0 1-1.253 1.253l1.176 1.619a7.72 7.72 0 0 0 1.681-1.675l.015-.021-1.619-1.176zM3.667 16.228c0-2.521.001-4.333.153-5.736.149-1.384.437-2.251.929-2.928L3.13 6.389c-.781 1.075-1.131 2.333-1.299 3.888-.167 1.535-.165 3.473-.165 5.951h2zm1.16-11.536a7.724 7.724 0 0 0-1.681 1.676l-.015.022L4.75 7.565c.349-.48.773-.904 1.253-1.253L4.827 4.693zm7.161-1.453c-3.236.039-5.456.215-7.16 1.453l1.173 1.619c1.113-.808 2.676-1.033 6.011-1.073l-.024-2zm13.669 15.644c-.04 3.335-.264 4.897-1.073 6.009l1.619 1.176c1.239-1.705 1.416-3.925 1.453-7.16l-2-.025zm-.289-6.714l-7.163 7.161 1.413 1.415 7.163-7.163-1.413-1.413zm-13.291 1.034L19.24 6.04l-1.415-1.413-7.163 7.16 1.413 1.415zm3.543 7.37c-1.56.173-2.623.289-3.411.264-.763-.025-1.071-.179-1.265-.373l-1.413 1.413c.711.712 1.62.927 2.613.96.967.031 2.199-.109 3.696-.276l-.22-1.987zm-6.773-5.005c-.167 1.497-.307 2.729-.275 3.696.032.993.247 1.903.957 2.613l1.415-1.413c-.195-.195-.348-.503-.373-1.265-.025-.788.091-1.851.264-3.411l-1.988-.22zm1.816-3.781c-.607.608-1.085 1.068-1.373 1.667l1.803.867c.107-.221.281-.415.985-1.119l-1.413-1.413zm.172 4c.109-.988.151-1.247.257-1.467l-1.803-.867c-.288.599-.348 1.26-.443 2.113l1.987.22zm7.37 3.542c-.703.704-.897.88-1.117.987l.867 1.801c.597-.288 1.057-.767 1.665-1.373l-1.415-1.413zM15.84 22.56c.853-.093 1.515-.155 2.113-.443l-.867-1.803c-.22.107-.479.148-1.467.257l.22 1.988zm9.528-16.52c.908.908 1.517 1.52 1.912 2.036.376.493.461.781.461 1.027h2c0-.859-.36-1.568-.872-2.24-.493-.648-1.219-1.369-2.088-2.237l-1.413 1.413zm1.413 7.541c.869-.868 1.593-1.589 2.088-2.239.513-.671.872-1.38.872-2.24h-2c0 .247-.085.533-.461 1.027-.395.517-1.004 1.129-1.912 2.039l1.413 1.413zm0-8.956c-.868-.869-1.589-1.593-2.239-2.088-.671-.512-1.38-.872-2.24-.872v2c.247 0 .533.085 1.027.461.517.395 1.129 1.004 2.039 1.912l1.413-1.413zM19.24 6.04c.908-.908 1.52-1.517 2.037-1.912.493-.376.78-.461 1.027-.461v-2c-.86 0-1.569.36-2.24.872-.648.493-1.369 1.219-2.24 2.088L19.24 6.04zm7.541 6.129L19.24 4.626l-1.415 1.413 7.543 7.543 1.413-1.413z"/></symbol><symbol id="icon-Education" viewBox="0 0 32 32"><path fill="none" stroke-width="2" d="M6.667 14.771v3.397c0 2.483 0 3.723.327 4.728a6.697 6.697 0 0 0 4.233 4.266l.047.014c1.004.325 2.245.325 4.727.325s3.723 0 4.727-.325a6.697 6.697 0 0 0 4.266-4.233l.014-.047c.327-1.005.327-2.245.327-4.728v-3.393m-.002 0c-1.276.517-2.853 1.08-4.729 1.749l-2.811 1.004c-.888.317-1.331.476-1.793.476-.461 0-.907-.16-1.793-.476l-2.811-1.004c-5.867-2.095-8.8-3.143-8.8-5.023 0-1.879 2.933-2.927 8.8-5.023l2.811-1.003c.888-.317 1.332-.476 1.793-.476.463 0 .907.159 1.793.476l2.811 1.003c5.867 2.096 8.8 3.144 8.8 5.023 0 1.28-1.356 2.173-4.071 3.273z"/><path d="M10.976 5.567l3.025-1.08C14.76 4.215 15.36 4 16 4s1.24.215 2 .487l3.024 1.08c2.863 1.023 5.113 1.827 6.64 2.617 1.476.763 2.741 1.744 2.741 3.317s-1.265 2.556-2.741 3.32c-1.527.788-3.777 1.592-6.64 2.615L18 18.516c-.76.272-1.36.488-2 .488s-1.24-.216-2-.488c.369.116.326.101.282.085l-.413-.131-2.893-1.033c-2.863-1.023-5.113-1.827-6.64-2.616-1.476-.763-2.741-1.744-2.741-3.319 0-1.573 1.267-2.555 2.741-3.317 1.527-.791 3.777-1.595 6.64-2.617zM5.256 9.96c-1.459.755-1.661 1.236-1.661 1.541 0 .307.203.788 1.66 1.543 1.392.72 3.513 1.48 6.479 2.539l2.809 1.004c.953.34 1.208.417 1.457.417s.504-.077 1.457-.417l2.809-1.004c2.965-1.059 5.087-1.819 6.479-2.539 1.457-.755 1.66-1.236 1.66-1.543 0-.305-.203-.787-1.66-1.541-1.392-.72-3.513-1.48-6.479-2.539l-2.809-1.004C16.504 6.077 16.249 6 16 6s-.504.077-1.457.417l-2.809 1.004C8.769 8.48 6.647 9.24 5.254 9.96zM2.667 21.835a1 1 0 0 0 1-1v-7.697l-.072-1.636c0-.552-.376-1-.928-1s-1.072.448-1.072 1v9.349c0 .552.52.984 1.072.984z"/></symbol><symbol id="icon-Group" viewBox="0 0 32 32"><path d="M19 10.333a3 3 0 0 1-3 3v2a5 5 0 0 0 5-5h-2zm-3 3a3 3 0 0 1-3-3h-2a5 5 0 0 0 5 5v-2zm-3-3a3 3 0 0 1 3-3v-2a5 5 0 0 0-5 5h2zm3-3a3 3 0 0 1 3 3h2a5 5 0 0 0-5-5v2zm-4 12h8v-2h-8v2zm8 6h-8v2h8v-2zm-8 0a3 3 0 0 1-3-3H7a5 5 0 0 0 5 5v-2zm11-3a3 3 0 0 1-3 3v2a5 5 0 0 0 5-5h-2zm-3-3a3 3 0 0 1 3 3h2a5 5 0 0 0-5-5v2zm-8-2a5 5 0 0 0-5 5h2a3 3 0 0 1 3-3v-2zm-1.664-3.481c-.211-.339-.605-.519-1.003-.519a3 3 0 1 1 0-6c.397 0 .792-.18 1.003-.519l.028-.044c.351-.553.173-1.336-.477-1.407a5 5 0 1 0 .023 9.938l-.023.002c.651-.072.827-.855.477-1.408l-.027-.044zM6.277 24.423A.846.846 0 0 0 5.566 24h-.233a3 3 0 1 1 0-6h.232c.293 0 .56-.169.712-.423.369-.616-.031-1.577-.749-1.577h-.195a5 5 0 0 0 0 10h.195c.719 0 1.12-.96.749-1.577zm15.359-10.527c-.351.553-.173 1.336.477 1.407a5 5 0 1 0-.023-9.938l.023-.002c-.651.072-.827.855-.477 1.408l.027.044c.212.339.605.519 1.004.519a3 3 0 1 1 0 6c-.399 0-.792.18-1.003.519l-.047.076.019-.032zm4.087 10.527c-.369.616.031 1.577.749 1.577h.195a5 5 0 0 0 0-10h-.195c-.719 0-1.12.96-.749 1.577a.843.843 0 0 0 .712.423h.232a3 3 0 1 1 0 6h-.232a.841.841 0 0 0-.71.419l-.002.004z"/></symbol><symbol id="icon-Heart" viewBox="0 0 32 32"><path fill="none" stroke-width="2" stroke-linecap="round" d="M6.667 11.703a5.925 5.925 0 0 1 1.527-2.485 5.262 5.262 0 0 1 1.801-1.205L10.03 8m8.105-2.472c2.231-1.416 5.835-2.755 8.947.42C34.47 13.48 21.802 28 16.001 28 10.201 28-2.468 13.481 4.92 5.947c3.112-3.173 6.716-1.835 8.947-.419 1.261.8 3.008.8 4.269 0z"/></symbol><symbol id="icon-letter" viewBox="0 0 40 32"><path fill="#575757" d="M1.491 8.755a9.863 9.863 0 0 1-.691.353l-.073.03c-.195.13-.089.417.124.372.8-.214 1.615-.565 2.406-.821.331-.144 1.115-.42 1.906-.682l.457-.131c.924-.364 2.516-.892 4.127-1.378l.66-.171c2.29-.756 5.538-1.633 8.834-2.383l.856-.164c2.404-.602 5.72-1.252 9.08-1.77l.711-.09c.863-.125 1.712-.246 2.547-.364.321-.048.74-.093 1.163-.123l.055-.003c.341-.073.842-.223.975.191.124.372.171.805.209 1.195.07.301.15.735.215 1.174l.013.105c.086.39.231 1.264.361 2.142l.052.426c-.666-5.302.001-1.47.654 2.367l1.254 8.913.268-.411a169.88 169.88 0 0 0-23.366 7.269c-3.38 1.296-5.483 2.185-7.567 3.111l1.188-.472c.16.054.334.106.522.155-1.81-4.75-3.672-9.533-5.644-14.204C1.772 10.822 1.2 9.497.614 8.18l.473 1.19c-.175-.405-.777-.1-.602.305.682 1.207 2.617 5.904 4.486 10.633l1.252 3.595c.081.053.599 1.395 1.101 2.744l.428 1.313c.079.16.352.191.522.154a160.597 160.597 0 0 1 22.903-8.188c.949-.325 3.167-.916 5.402-1.465l1.217-.253a.342.342 0 0 0 .268-.411C36.327 6.537 35.693 3.002 35.046-.527l1.205 7.909c-.557-3.689-.864-5.445-1.184-7.196l.308 2.026c-.101-.687-.169-1.425-.981-1.473-.401-.003-.784.078-1.133.108-.46.069-.909.119-1.346.153a143.147 143.147 0 0 0-20.207 4.339c-2.76.787-4.606 1.385-6.432 2.024l.888-.271a74.124 74.124 0 0 0-3.44 1.224l.754-.255c-.909.326-1.904.67-2.753 1.072.087.129.156.247.209.354.203-.178.427-.356.657-.525l.028-.019c.119-.069-.011-.263-.13-.193z"/><path fill="#575757" d="M1.777 9.889c-.24-.082.065-.323.159-.299.128-.027.265-.012.392-.039.273.03.544.047.811.049.597.021 1.181.044 1.75.071 1.132.025 2.279.047 3.439.066 2.208.062 4.43.121 6.666.177 1.075.037 2.203.107 3.285-.034 1.039-.133 2.067-.528 2.983-1.033.959-.513 1.814-1.094 2.721-1.641a164.827 164.827 0 0 0 4.243-2.708l-1.389.862c2.169-1.376 4.327-2.734 6.473-4.076.313-.199.069-.723-.245-.523l-6.117 3.867-3.135 1.994c-.983.607-1.957 1.257-3.001 1.789a8.039 8.039 0 0 1-3.393.987c-1.194.033-2.364-.029-3.567-.039a513.278 513.278 0 0 0-7.289-.177l-4.011-.033c-.359-.012-1.042-.088-1.165.381-.083.239.074.559.372.496.085-.018.067-.103.015-.136zm12.83 3.647c-4.326 1.144-3.394.851-2.461.559l5.259-1.419c.417-.133.876-.275 1.326-.459.374-.124.842-.223 1.189-.474.033-.051.007-.178-.079-.16-.444.006-.894.19-1.311.323.95-.273.495-.114.041.044l-1.409.424a57.17 57.17 0 0 0-2.609.909c-.161.079-.074.281.054.254zm.958 1.788c1.277-.271 2.56-.721 3.81-1.12-12.418 3.339-11.181 2.949-9.943 2.559l13.659-3.703c.103-.086 1.337-.49 2.576-.88l1.13-.306 2.755-.851.493-.193.213-.045c.085-.018.136-.058.152-.121-.137-.015-.195.13-.083.239.164.142.435-.048.432-.269-.047-.433-.558-.324-.814-.27l-3.494 1.141c-2.357.767-4.701 1.53-7.031 2.291-1.335.417-2.679.791-3.935 1.367-.085.018-.049.188.079.161zm.604 2.838c2.28-.573 4.507-1.401 6.708-2.134-1.934.442.346-.281 2.631-.991l4.214-1.127c.328-.117.96-.3 1.597-.469l.292-.066c.544-.16 1.234-.262 1.733-.634.076-.06.04-.23-.097-.245-.538-.018-1.107.235-1.608.386-.555.177-1.128.343-1.718.498-1.111.354-2.236.711-3.375 1.071-2.25.714-4.509 1.46-6.775 2.237-1.198.431-2.448.83-3.628 1.347-.076.06-.049.187.027.127zm-.094 2.277c4.601-1.376 9.174-2.879 13.775-4.256.04-.067 1.34-.456 2.647-.831l1.248-.307c.289-.106.199-.529-.099-.466-8.819 2.549-13.413 4.033-17.982 5.572l4.182-1.222a77.86 77.86 0 0 0-4.457 1.56l.649-.22c-.128.027-.04.23.036.169zm-1.795 7.463c-.479.677.089 1.885 1.025 1.685.426-.09.694-.502.741-.91.065-.323-.183-1.068-.642-.926-.119.069-.228.181-.159.299.045.212.233.26.245.523.003.221-.08.46-.284.547-.578.211-.895-.651-.669-1.053.091-.197-.166-.363-.258-.166zm18.178-5.723c-.827.087-1.449.927-1.405 1.759s.792 1.425 1.646 1.465 1.581-.513 1.717-1.339c.089-.417.042-.85-.167-1.204-.157-.321-.511-.732-.903-.693a.277.277 0 0 0-.183.393c.097.245.345.369.475.563.139.236.193.49.162.762-.011.578-.467.94-1.039.973-.58-.009-1.139-.333-1.213-.893-.101-.687.335-1.355.964-1.533.17-.036.116-.29-.054-.254z"/></symbol><symbol id="icon-letter2" viewBox="0 0 35 32"><path fill="#575757" d="M12.889 3.171c.983.08 1.946.094 2.898.168.988.05 1.962.117 2.923.204 2.643.205 4.626.4 6.599.626l-.84-.078c2.861.339 4.823.619 6.775.93l-1.029-.135c.851.119 1.803.193 2.479.78.625.516 1 1.392 1.078 2.185.073.824-.172 1.684-.938 2.142-.593.363-1.441.401-1.935-.154-.185-.188-.49.132-.275.326 1.064 1.029 2.841.314 3.312-.944.579-1.519-.178-3.586-1.684-4.225-.864-.402-1.912-.462-2.823-.591a53.264 53.264 0 0 0-2.752-.391l-.381-.037c-1.326-.193-3.489-.431-5.665-.628l-.633-.046a83.928 83.928 0 0 0-3.294-.243l-.274-.012c-1.175-.051-2.344-.133-3.534-.093-.121-.021-.128.196-.007.217z"/><path fill="#575757" d="M31.932 5.219a1.238 1.238 0 0 0-.363.466c-.114.182-.25.424-.378.67l-.032.068c-.185.36-.381.809-.553 1.271l-.03.092c-.316.911-.506 1.813-.666 2.72-.311 1.941-.345 3.899-.535 5.86-.144 1.876-.45 3.787-1.192 5.526-.665 1.473-1.59 2.837-2.781 3.937a10.636 10.636 0 0 1-4.67 2.637c-.288.043-.11.448.147.4 3.134-.819 5.754-3.132 7.253-5.985 1.793-3.456 1.559-7.426 1.973-11.188.132-1.099.293-2.193.606-3.26.184-.624.385-1.148.62-1.652l-.03.072c.13-.268.259-.526.386-.774.067-.109.143-.248.215-.391l.016-.035c.052-.116.073-.237.1-.388.005-.03-.05-.071-.085-.046zM13.23 3.356c-.202-.441-.736-.067-.904.184-.379.557-.622 1.231-.855 1.845-.487 1.348-.793 2.728-.857 4.151-.016.091.028.192.119.208.816.082 1.622.161 2.418.239l.004-.373c-1.24-.032-2.273.877-2.863 1.927-.785 1.451-.746 3.173-1.089 4.765-.021.121.089.203.215.194a40.724 40.724 0 0 1 3.331-.132c.631 0 1.258.014 1.882.041l-.089-.003c.021-.121.033-.244.034-.368l-5.597 1.009c-.096.014-.137.069-.153.16.02 2.716-.087 5.971-2.484 7.73-.569.398-1.176.665-1.843.735-.252.018-.226.397.027.379 1.272-.15 2.369-.892 3.134-1.879.894-1.183 1.281-2.674 1.416-4.146.105-.948.083-1.887.092-2.821l-.153.16 5.586-.948c.192-.029.22-.366.004-.374a39.424 39.424 0 0 0-5.372.12l.152-.011c.05.071.109.144.179.219.322-1.471.267-3.102.945-4.479.524-1.03 1.461-1.925 2.671-1.899.217.007.22-.367.034-.368a58.209 58.209 0 0 0-2.062-.187l-.362-.022c.053.051.105.112.155.183.084-1.229.295-2.374.62-3.468l-.029.112c.16-.554.35-1.102.57-1.645a6.53 6.53 0 0 0 .273-.523l.112-.251c.057-.146.395-.647.599-.393.055.041.156-.004.137-.069zM3.853 26.332c-.481.019-.96.028-1.438.027-.439.016-.883.063-1.3-.042C.33 26.178.664 24.99.93 24.539a2.477 2.477 0 0 1 1.448-1.148 1.641 1.641 0 0 1 .479-.041h-.004c.066-.02.318-.037.398.039.215.194-.03.525-.258.578-.167.064-.089.327.098.329.505-.036.764-.801.395-1.178-.185-.188-.629-.142-.881-.124-.336.04-.639.15-.905.315l.009-.005a2.518 2.518 0 0 0-1.254 1.462c-.181.498-.281 1.416.286 1.734.426.231.988.049 1.397.028a64.285 64.285 0 0 0 1.731-.1c.03.005.046-.085-.014-.096z"/><path fill="#575757" d="M.752 26.783c.64.082 1.265.067 1.91.119.682.016 1.373.045 2.072.085 1.314.086 2.636.184 3.966.294 2.635.246 5.259.553 7.884.86 1.46.195 2.946.426 4.417.561.217.007.27-.295.059-.333-1.304-.199-2.649-.342-3.959-.511l-3.97-.45c-2.66-.282-5.325-.534-7.982-.659a69.314 69.314 0 0 0-1.992-.092l-.14-.004c-.741-.037-1.512-.08-2.274.004-.06-.011-.082.11.009.126z"/><path fill="#575757" d="M21.204 28.612c-.346-.155-.714-.188-1.02-.398s-.499-.525-.364-.937c.291-.946 1.395-.845 2.168-.99.132-.039.133-.226.012-.247a1.86 1.86 0 0 0-.832-.053 2.436 2.436 0 0 0-.814.199c-.441.203-.817.573-.938 1.082-.11.448.062.884.448 1.17.33.245.894.407 1.313.325.066-.02.117-.135.027-.151zM2.551 23.827c2.534.291 5.064.425 7.619.595-.677-.003 1.94.195 4.559.382l3.005.172c1.411.124 2.822.248 4.243.312.156-.004.174-.281-.012-.283-1.249-.158-2.52-.195-3.779-.292a241.82 241.82 0 0 1-3.815-.267c-2.555-.17-5.075-.365-7.6-.529-1.416-.094-2.797-.212-4.224-.246-.066.02-.087.141.004.156zm.309.366a4.21 4.21 0 0 1-.538-.129l.03.008c-.121-.021-.153.16-.032.181.997.176 2.034.296 3.037.442 1.007.115 2.045.236 3.063.291.091.016.117-.135.027-.151-1.002-.145-2.04-.266-3.047-.381-1.002-.145-2.034-.296-3.047-.381a.61.61 0 0 0-.001.19v-.003a2.034 2.034 0 0 1 .507.027l-.012-.002c.066-.02.076-.08.016-.091zm-.921.804c.941.083 1.893.157 2.857.223.922.069 1.864.204 2.802.182.121.021.128-.196.007-.217-.936-.165-1.869-.174-2.827-.218a54.636 54.636 0 0 0-2.674-.178l-.128-.004c-.121-.021-.188.185-.037.212zm-.312.538c.759.234 1.674.434 2.611.56l.092.01c.887.094 1.809.163 2.727.076.096-.014.092-.171-.028-.192-.933-.009-1.835-.012-2.752-.111a28.83 28.83 0 0 1-2.823-.501l.195.038c-.06-.011-.076.08-.021.121z"/><path fill="#575757" d="M21.284 25.509c.471-.197 1.073.096 1.174.581a.807.807 0 0 1-.213.68c-.224.21-.446.233-.709.312-.101.044-.098.201-.012.247.322.119.702-.094.926-.304.229-.24.389-.617.297-.976-.135-.647-.908-1.033-1.521-.736-.107.075-.043.242.059.197zm-1.661 1.827c.363.064.75.163 1.153.172.151.027.188-.185.043-.242-.387-.1-.785-.139-1.148-.202-.181-.032-.229.24-.048.272zm11.187-17.7c.368.034.741.037 1.119.01.343-.002.741.037 1.1-.055.126-.009.098-.201-.023-.222-.332-.059-.711-.032-1.054-.03-.379.027-.782.018-1.13.05-.131.039-.163.221-.012.247zm.592-.706c.427-.09.767-.179 1.1-.282l-.089.024c.066-.02.027-.151-.039-.132-.34.044-.682.098-1.025.162-.162.034-.108.261.053.228z"/></symbol><symbol id="icon-Like" viewBox="0 0 32 32"><path fill="none" stroke-width="2" d="M4 13.333a3.333 3.333 0 1 1 6.666 0V24A3.333 3.333 0 1 1 4 24V13.333zm11.433-7.08l-2.973 4.833c-.799 1.297-1.197 1.947-1.44 2.656a5.882 5.882 0 0 0-.178.616l-.009.045c-.167.733-.167 1.493-.167 3.017v4.579a5.333 5.333 0 0 0 5.333 5.333h3.88a6.666 6.666 0 0 0 5.945-3.647l.017-.038 1.531-3.063c1.513-3.027-.687-6.585-4.069-6.585h-.92a3.761 3.761 0 0 1-3.714-4.354l-.003.021.324-2.107a1.933 1.933 0 0 0-3.553-1.314l-.005.008z"/></symbol><symbol id="icon-magic-wand" viewBox="0 0 32 32"><path fill="none" stroke-width="2" stroke-linecap="round" stroke-linejoin="round" d="M26.209 7.512l-1.413-1.415c-.362-.362-.862-.586-1.415-.586s-1.053.224-1.415.586L6.411 21.653c-.362.362-.586.862-.586 1.414s.224 1.052.586 1.414l1.413 1.415c.362.362.862.586 1.415.586s1.053-.224 1.415-.586L26.209 10.34c.362-.362.586-.862.586-1.414s-.224-1.052-.586-1.414z"/><path fill="none" stroke-width="2" stroke-linecap="round" stroke-linejoin="round" d="M17.728 10.348l4.243 4.243-11.313 11.315c-.362.362-.862.586-1.415.586s-1.053-.224-1.415-.586l-1.413-1.415c-.362-.362-.586-.862-.586-1.414s.224-1.052.586-1.414l11.313-11.315z"/><path d="M26.667 17A2.333 2.333 0 0 0 29 19.333a.667.667 0 1 1 0 1.334A2.333 2.333 0 0 0 26.667 23a.667.667 0 1 1-1.334 0A2.333 2.333 0 0 0 23 20.667a.667.667 0 1 1 0-1.334A2.333 2.333 0 0 0 25.333 17a.667.667 0 1 1 1.334 0zm.225 3a3.717 3.717 0 0 1-.884-.881L26 19.108a3.704 3.704 0 0 1-.892.892c.347.243.648.545.892.891.244-.347.547-.648.892-.891zM12.667 3A2.333 2.333 0 0 0 15 5.333a.667.667 0 1 1 0 1.334A2.333 2.333 0 0 0 12.667 9a.667.667 0 1 1-1.334 0A2.333 2.333 0 0 0 9 6.667a.667.667 0 1 1 0-1.334A2.333 2.333 0 0 0 11.333 3a.667.667 0 1 1 1.334 0zm.224 3a3.735 3.735 0 0 1-.883-.882L12 5.107a3.718 3.718 0 0 1-.891.892c.345.243.647.545.891.891.244-.347.547-.648.891-.891z"/></symbol><symbol id="icon-pencil" viewBox="0 0 39 32"><path fill="#575757" d="M12.3 16.119c-.118.195-.249.356-.379.517-.11.116.052.246.14.176.355-.167.661-.468.993-.702.269-.232.573-.48.884-.719l.05-.037c.876-.679 1.477-1.159 2.074-1.645l-.226.178a270.742 270.742 0 0 0 4.159-3.446l-.499.411a295.052 295.052 0 0 0 7.541-6.398l-.345.297c.644-.588 1.291-1.164 1.942-1.729.68-.626 1.384-1.185 1.985-1.82.152-.207-.091-.459-.267-.319-.661.468-1.208 1.045-1.8 1.601L26.773 4.04a225.57 225.57 0 0 1-3.276 2.9l-.303.257a342.516 342.516 0 0 1-6.541 5.532l-.668.536a95.69 95.69 0 0 0-2.177 1.806l.143-.119c-.204.172-.537.443-.873.71l-.15.116c-.352.28-.749.538-1.011.86.069.05.134.09.194.118.039-.203.158-.398.276-.592.021-.046-.037-.1-.091-.043zm2.449 3.196a.878.878 0 0 0 .401-.146l.462-.395c.361-.277.666-.524.963-.78l-.028.024c.587-.466 1.17-.943 1.748-1.431l3.515-3.02c2.505-2.2 4.722-4.232 6.898-6.309l-.087.083a443.083 443.083 0 0 0 3.733-3.667c.23-.198-.137-.48-.334-.295-4.356 4.348-8.896 8.499-13.564 12.507a68.758 68.758 0 0 1-1.863 1.566l-.138.108c-.292.268-.61.545-.935.814l-.042.034-.461.395a.92.92 0 0 0-.337.425c.012.033.036.1.07.088z"/><path fill="#575757" d="M29.849 1.367c.331-.65 1.345-.565 1.785-.082.66.668.341 1.768.014 2.531-.064.137.131.255.24.14.139-.24.279-.48.373-.741.085-.242.134-.52.134-.811l-.001-.075v.004c-.004-.528-.198-1.063-.611-1.367-.631-.489-1.734-.504-2.116.316-.031.124.106.188.182.085zm-2.488 2.722a1.394 1.394 0 0 1 1.561.34c.185.198.283.465.301.723.031.292-.063.553-.112.836a.157.157 0 0 0 .273.128c.446-.541.23-1.446-.199-1.896-.465-.55-1.267-.675-1.898-.331-.167.061-.094.261.073.201z"/><path fill="#575757" d="M28.511 3.822c.495-.407.91-.823 1.36-1.252.234-.216.452-.431.662-.653l.006-.006c.23-.198.461-.395.622-.681.064-.137-.119-.222-.207-.152-.255.131-.44.349-.671.547l-.656.693c-.416.416-.865.845-1.256 1.328-.076.103.052.246.14.176zm.641.41l1.378-1.41c.404-.449.919-.902 1.22-1.428.109-.116-.097-.267-.219-.185-.474.362-.874.924-1.311 1.386l-1.286 1.452c-.131.161.076.313.219.186zm.534.222c-.14-.176-.416 0-.343.201.055.359.486.088.628-.039.383-.405.741-.875 1.089-1.267.183-.207.372-.436.554-.671l.023-.031c.164-.173.349-.392.455-.62.064-.137-.085-.234-.219-.185-.243.164-2.443 2.744-2.385 2.798.115.109.313-.076.197-.185zm.538.75c.804-.595 1.548-1.358 2.03-2.215.076-.103-.106-.188-.194-.118-.689.705-1.332 1.431-2.033 2.102-.11.116.088.346.197.231zm-18.31 11.623c1.275.179 2.181 1.628 1.675 2.834-.064.137.052.246.198.231.88-.283 1.639-.9 2.043-1.766.052-.17-.164-.243-.228-.106a3.53 3.53 0 0 1-1.936 1.537c.054.081.121.158.197.231.603-1.355-.445-3.093-1.942-3.154-.112.003-.13.161-.006.191z"/><path fill="#575757" d="M11.899 17.097c-.028-.18.069-.328.228-.31a.814.814 0 0 0-.12-.224l.001.002c-.613 1.018-1.089 2.1-1.668 3.105a48.72 48.72 0 0 1-2.021 3.259l.115-.181c-.13.161.009.337.188.31 2.089-.495 4.077-1.787 5.139-3.649.064-.137-.13-.255-.206-.152-.64.839-1.351 1.589-2.234 2.176a8.99 8.99 0 0 1-2.832 1.258c.085.095.159.195.222.298a31.19 31.19 0 0 0 1.833-2.882l.084-.163c.601-1.051 1.189-2.136 1.653-3.251-.003-.112-.052-.246-.152-.21-.325.043-.519.341-.41.641.036.1.215.073.179-.027z"/><path fill="#575757" d="M10.012 20.85c.279-.064.723.115.619.455-.073.216-.373.325-.568.207.025.067.064.141.119.222.036-.316.23-.614.555-.656l-.188-.31c-.27.401-.634.647-1.081.772l.213.377c.252-.243.57-.511.764-.808.097-.149-.031-.292-.185-.197-.31.188-.562.431-.813.674-.176.14-.066.441.167.356.501-.182.92-.486 1.244-.945.076-.103.003-.304-.143-.289-.492.103-.853.462-.907.936a.22.22 0 0 0 .119.222c.41.191.987-.094 1.029-.602s-.587-.884-1.005-.58c-.133.048-.039.203.061.167z"/><path fill="#575757" d="M10.018 21.491a1.86 1.86 0 0 0-1.216 1.532l-.001.009c-.009.079.073.201.173.164.875-.091 1.506-.851 1.572-1.707.009-.079-.094-.155-.173-.164-.328-.07-.813.258-.613.602.049.134.207.152.304.003.043-.091.06-.249.252-.243a.875.875 0 0 0-.171-.162l-.003-.002c.019.674-.527 1.252-1.211 1.349.077.073.139.139.186.198a1.743 1.743 0 0 1 .94-1.439l.01-.005c.1-.036.052-.17-.049-.133z"/><path fill="#575757" d="M9.716 21.904c-.286.255-.571.51-.868.732-.155.094-.003.304.152.209 1.163-.651 2.231-1.456 3.357-2.206l1.633-1.124c.257-.195.525-.393.804-.596.21-.152.531-.307.659-.58.021-.046-.016-.146-.082-.122-.292.031-.51.261-.72.413-.32.201-.587.386-.844.582l.028-.02c-.769.517-1.319.906-1.862 1.304l.174-.122c-1.093.738-2.231 1.456-3.3 2.261.047.059.108.124.185.198.182-.331.468-.587.708-.863.021-.046.009-.079-.025-.067zm4.162-5.603c-.346.088-.553.352-.531.723-.009.079.115.11.17.052 1.952-1.392 3.83-2.984 5.688-4.53a125.548 125.548 0 0 0 5.333-4.78 133.923 133.923 0 0 0 2.946-2.882l.01-.01c.109-.116-.064-.279-.207-.152a161.849 161.849 0 0 1-10.708 9.65c-1.056.839-2.146 1.689-3.202 2.528l.182.085a.471.471 0 0 1 .379-.517c.1-.037.039-.204-.061-.167zm-.648 2.166a.964.964 0 0 0-.699.665l-.002.007c-.009.079.049.134.116.11.607-.41 1.168-.842 1.73-1.273a61.201 61.201 0 0 0 1.745-1.401l-.105.085c1.115-.885 2.21-1.789 3.287-2.71a126.933 126.933 0 0 0 6.261-5.736l-.021.02a120.827 120.827 0 0 0 3.367-3.327l.026-.027c.131-.161-.088-.347-.231-.219a157.653 157.653 0 0 1-12.146 11.234l-.254.206a81.77 81.77 0 0 1-1.579 1.264l-.269.204c-.616.489-1.299 1.003-1.891 1.559.03.014.065.039.103.076a.794.794 0 0 1 .601-.635c.033-.012.043-.091-.036-.1z"/><path fill="#575757" d="M8.156 18.763c-.95-.222-1.913-.477-2.825-.903a9.936 9.936 0 0 1-2.504-1.671l.007.007c-.635-.602-1.732-1.641-1.332-2.619.34-.729 1.323-.936 2.004-.729 1.12.273 1.771 1.436 2.357 2.321.131.255.507.043.422-.191-.322-1.094.093-2.343.985-3.008.243-.164.519-.34.777-.358.346-.088.611.118.787.395.395.462.569 1.042.629 1.626.068 1.225-.417 2.385-1.121 3.36-.391.483-.804 1.012-1.047 1.592-.155.511-.23 1.03-.127 1.522.107.604.359 1.194.687 1.68.2.263.421.493.665.696l.007.006c.231.219.437.37.765.44.124.031.222-.118.151-.206-.407-.495-.911-.842-1.252-1.361-.329-.486-.548-1.088-.563-1.65-.028-1.428 1.228-2.34 1.793-3.491.531-1.139.764-2.473.293-3.664-.194-.535-.571-1.155-1.106-1.376-.58-.243-1.19.055-1.631.404-1.068.805-1.557 2.269-1.128 3.552.125-.071.262-.146.41-.225-.611-.951-1.304-2.023-2.406-2.455-.829-.304-1.871-.152-2.471.483-.886.89-.278 2.145.417 2.914a10.236 10.236 0 0 0 2.616 2.106l.051.026c1.097.623 2.402 1.094 3.696 1.115.191.006.194-.298-.009-.337zm1.487 4.605c.857.067 1.682-.158 2.45-.437.868-.316 1.737-.632 2.635-.657 1.54-.03 3.031 1.054 3.466 2.561.271.848.162 1.796-.22 2.616-.085.182.101.38.301.307 1.539-.447 2.99-1.24 4.244-2.264 1.186-.999 2.343-2.291 2.943-3.758.043-.091-.118-.222-.195-.119-.886 1.307-1.796 2.546-3.062 3.537a11.126 11.126 0 0 1-4.089 2.17c.093.117.182.224.267.319.734-1.516.457-3.421-.768-4.603a3.914 3.914 0 0 0-2.065-1.103c-.905-.201-1.81.015-2.657.285-1.068.389-2.101.878-3.236.875-.146.015-.161.285-.015.27zm10.577-4.606c-.06.666.229 1.355.812 1.711.55.368 1.3.246 1.794-.161s.655-1.109.336-1.674c-.176-.276-.407-.495-.714-.611-.228-.107-.668-.173-.841.079-.109.116-.082.295.055.359.182.085.383.012.565.097.17.052.331.182.437.37.246.365.113.829-.206 1.097-.947.723-1.953-.273-1.968-1.252.018-.158-.252-.173-.27-.015z"/></symbol><symbol id="icon-star" viewBox="0 0 34 32"><path d="M17.468.538l4.262 10.046 10.812.976a.87.87 0 0 1 .497 1.525l-.001.001-8.18 7.188 2.42 10.656a.875.875 0 0 1-.646 1.047l-.006.001a.857.857 0 0 1-.673-.122l.003.002-9.288-5.592-9.32 5.608a.866.866 0 0 1-1.188-.296l-.002-.004a.867.867 0 0 1-.098-.65l-.001.006h-.002l2.42-10.656-8.18-7.188a.877.877 0 0 1 .521-1.525h.003l10.784-.974L15.869.533a.866.866 0 0 1 1.598.001l.002.006zm2.868 11.21L16.668 3.1l-3.67 8.648a.87.87 0 0 1-.721.528h-.003l-9.306.84 7.004 6.156a.877.877 0 0 1 .311.89l.001-.006-2.084 9.17 8.004-4.818a.854.854 0 0 1 .909-.006l-.004-.002 8.02 4.826-2.08-9.17a.875.875 0 0 1 .273-.851l.001-.001 7.04-6.188-9.258-.836a.87.87 0 0 1-.77-.526l-.002-.006z"/><path d="M20.336 11.748L16.668 3.1l-3.67 8.648a.87.87 0 0 1-.721.528h-.003l-9.306.84 7.004 6.156a.877.877 0 0 1 .311.89l.001-.006-2.084 9.17 8.004-4.818a.854.854 0 0 1 .909-.006l-.004-.002 8.02 4.826-2.08-9.17a.875.875 0 0 1 .273-.851l.001-.001 7.04-6.188-9.258-.836a.87.87 0 0 1-.77-.526l-.002-.006z"/></symbol><symbol id="icon-Sun" viewBox="0 0 32 32"><path fill="none" stroke-width="2" stroke-linecap="round" d="M16 1.333V4m0 24v2.667M30.667 16H28M4 16H1.333M26.371 5.629l-1.885 1.885M7.515 24.485L5.63 26.37m20.741.001l-1.885-1.885M7.515 7.515L5.63 5.63M24 16a8 8 0 0 1-16 0 8 8 0 0 1 16 0z"/></symbol><symbol id="icon-Time" viewBox="0 0 32 32"><path d="M17 10.667a1 1 0 0 0-2 0h2zm-2.96 3.293a1 1 0 1 0-1.414 1.413l.001.001 1.413-1.413zM3.375 3.552a1 1 0 1 0 1.253 1.561l-.002.002-1.252-1.563zm4.584-1.104A1 1 0 1 0 6.705.887l.002-.001 1.251 1.563zm19.417 2.667a1 1 0 0 0 1.25-1.561l-.002-.002-1.248 1.563zM25.291.885a1 1 0 0 0-1.25 1.561l.002.001L25.291.884zM16 16.391zm-1-5.724v5.724h2v-5.724h-2zm-2.373 4.706l2 2 1.413-1.413-2-2-1.413 1.413zM28.333 16c0 6.811-5.522 12.333-12.333 12.333v2c7.916 0 14.333-6.417 14.333-14.333h-2zM16 28.333C9.189 28.333 3.667 22.811 3.667 16h-2c0 7.916 6.417 14.333 14.333 14.333v-2zM3.667 16C3.667 9.189 9.189 3.667 16 3.667v-2C8.084 1.667 1.667 8.084 1.667 16h2zM16 3.667c6.811 0 12.333 5.522 12.333 12.333h2c0-7.916-6.417-14.333-14.333-14.333v2zM4.625 5.115l3.333-2.667L6.706.885 3.373 3.552l1.251 1.563zm24-1.563L25.292.885l-1.251 1.563 3.333 2.667 1.251-1.563zM15 16.391a.61.61 0 0 1 1.04-.431l-1.413 1.413c.876.876 2.373.256 2.373-.983h-2z"/></symbol><symbol id="icon-Verified" viewBox="0 0 32 32"><path fill="none" stroke-width="2" stroke-linecap="round" d="M21.333 12l-4.617 5.541c-.949 1.14-1.424 1.709-2.049 1.709-.624 0-1.099-.569-2.048-1.709L10.667 15.2M7.46 6.692a3.944 3.944 0 0 0 4.742-2.715l.007-.028c1.089-3.813 6.493-3.813 7.583 0a3.95 3.95 0 0 0 4.776 2.737l-.027.006c3.847-.964 6.549 3.716 3.791 6.565-.687.709-1.11 1.676-1.11 2.743s.423 2.034 1.111 2.744l-.001-.001c2.759 2.849.056 7.529-3.791 6.565a3.944 3.944 0 0 0-4.742 2.714l-.007.028c-1.089 3.813-6.493 3.813-7.583 0a3.952 3.952 0 0 0-4.777-2.736l.027-.006c-3.847.964-6.549-3.716-3.791-6.567.687-.709 1.11-1.676 1.11-2.742s-.423-2.033-1.111-2.743l.001.001c-2.759-2.849-.056-7.529 3.791-6.564z"/></symbol><symbol id="icon-Website" viewBox="0 0 32 32"><path d="M10.667 16zm10.666 0zM16 21.333zm2.76 7.715h-.001zm-5.52 0h.001zM3.653 10.96zm-.7 7.797zM13.241 2.952zm5.518 0zm9.482 8.057zm-24.484 0zm23.667.334c.575 1.372.909 2.967.909 4.64v.018V16h2v-.018c0-1.945-.389-3.8-1.092-5.49l.035.095-1.852.756zM28.333 16v.01c0 .901-.096 1.779-.279 2.625l.015-.081 1.957.412c.2-.957.307-1.949.307-2.965h-2zm-.264 2.553c-1.04 4.778-4.738 8.476-9.434 9.501l-.082.015.412 1.957c5.555-1.208 9.854-5.506 11.044-10.967l.017-.095-1.957-.412zm-9.516 9.516c-.765.168-1.643.264-2.544.264h-.01H16v2c1.016 0 2.008-.107 2.965-.307l-.412-1.957zM16 28.333h-.01c-.901 0-1.779-.096-2.625-.279l.082.015-.412 1.957c.957.2 1.949.307 2.965.307v-2zM3.667 16c0-1.651.324-3.224.911-4.66l-1.852-.756c-.67 1.597-1.059 3.452-1.059 5.399v.018V16h2zm9.78 12.069c-4.778-1.04-8.476-4.738-9.501-9.434l-.015-.082-1.957.412c1.208 5.555 5.506 9.854 10.967 11.044l.095.017.412-1.957zm-9.516-9.516a12.058 12.058 0 0 1-.264-2.544v-.01V16h-2c0 1.016.107 2.008.307 2.965l1.957-.412zm.646-7.213c1.564-3.754 4.819-6.527 8.788-7.394l.082-.015-.412-1.957a14.357 14.357 0 0 0-10.309 8.611l1.852.756zm8.87-7.409a12.058 12.058 0 0 1 2.544-.264h.01v-2c-1.016 0-2.008.107-2.965.307l.412 1.957zM16 3.667c.876 0 1.731.091 2.553.264l.412-1.957a14.007 14.007 0 0 0-2.955-.307h-.011H16v2zm2.553.264c4.051.882 7.307 3.658 8.84 7.332l.03.082 1.852-.756C27.458 6.225 23.673 3 19.059 1.993l-.095-.017-.412 1.956zm-.746-.675c.368 1.153 1.729 5.588 2.288 9.663l1.981-.272c-.583-4.256-1.991-8.827-2.364-9.999l-1.907.608zm2.286 9.664c.149 1.092.239 2.14.239 3.081h2c0-1.059-.1-2.203-.257-3.353l-1.981.272zm7.856-2.867c-1.463.444-4.212 1.224-7.047 1.747l.363 1.968c2.941-.543 5.769-1.347 7.264-1.8l-.58-1.913zM20.903 11.8c-1.72.319-3.437.535-4.904.535v2c1.64 0 3.491-.24 5.267-.567l-.363-1.967zm-.57 4.2c0 1.395-.196 3.016-.488 4.653l1.968.352c.303-1.693.52-3.445.52-5.005h-2zm-.488 4.653c-.643 3.588-1.72 7.091-2.04 8.091l1.907.608c.327-1.027 1.436-4.627 2.101-8.347l-1.968-.352zm8.899-2.846c-1 .32-4.503 1.396-8.091 2.039l.352 1.968c3.72-.664 7.32-1.773 8.347-2.101l-.608-1.907zm-8.091 2.038c-1.637.293-3.259.488-4.653.488v2c1.56 0 3.311-.217 5.005-.52l-.352-1.968zM16 20.333c-1.395 0-3.016-.196-4.653-.488l-.352 1.968c1.693.303 3.445.52 5.005.52v-2zm-4.653-.488c-3.588-.643-7.091-1.72-8.091-2.04l-.608 1.907c1.027.327 4.627 1.436 8.347 2.101l.352-1.968zM9.667 16c0 1.56.217 3.311.52 5.005l1.968-.352c-.293-1.637-.488-3.259-.488-4.653h-2zm.52 5.005c.664 3.72 1.773 7.32 2.101 8.347l1.907-.608c-.32-1-1.397-4.503-2.04-8.091l-1.968.352zm2.101-18.357c-.373 1.171-1.781 5.743-2.364 10l1.981.271c.559-4.075 1.92-8.509 2.288-9.663l-1.905-.608zm-2.364 10c-.157 1.149-.257 2.293-.257 3.352h2c0-.941.089-1.989.24-3.081l-1.983-.272zM16 12.333c-1.467 0-3.184-.216-4.904-.533l-.363 1.967c1.776.327 3.627.567 5.267.567v-2zm-4.904-.533c-2.836-.524-5.587-1.304-7.048-1.747l-.581 1.912c1.495.453 4.325 1.256 7.267 1.8l.363-1.967zm16.793-1.723a.315.315 0 0 1 .059-.023l.003-.001.58 1.913c.1-.029.192-.068.28-.113l-.921-1.776zm-24.76 1.738c.104.064.216.115.337.152l.581-1.915a.598.598 0 0 1 .128.057l-.002-.001-1.044 1.707z"/></symbol><symbol id="icon-Activity" viewBox="0 0 32 32"><path d="M16 3c-5 0-7.72-.076-9.839 1.464a7.724 7.724 0 0 0-1.682 1.675l-.015.021C2.924 8.28 3 11.001 3 16c0 5-.076 7.72 1.464 9.839a7.653 7.653 0 0 0 1.697 1.697C8.28 29.076 11.001 29 16 29c5 0 7.72.076 9.839-1.464a7.728 7.728 0 0 0 1.682-1.676l.015-.021C29.076 23.72 29 20.999 29 16c0-5 .076-7.72-1.464-9.839a7.728 7.728 0 0 0-1.676-1.682l-.021-.015C23.72 2.924 20.999 3 16 3zm0 2c5 0 7.277.076 8.664 1.084.48.349.903.771 1.253 1.252C26.924 8.723 27 11 27 16s-.076 7.277-1.084 8.664a5.68 5.68 0 0 1-1.252 1.253C23.277 26.924 21 27 16 27s-7.277-.076-8.664-1.084a5.689 5.689 0 0 1-1.242-1.236l-.011-.016C5.078 23.277 5 21 5 16s.076-7.277 1.084-8.664a5.68 5.68 0 0 1 1.252-1.253C8.723 5.078 11 5 16 5zm7.107 6.292a1.001 1.001 0 0 0-1.336.453l-.003.006-1.945 3.968c-.319.649-.887.908-1.481.888s-1.143-.315-1.417-.984a3.599 3.599 0 0 0-3.191-2.229h-.006a3.594 3.594 0 0 0-3.335 1.985l-.009.021-1.947 3.971a1 1 0 0 0 .452 1.336l.006.003a1.001 1.001 0 0 0 1.336-.453l.003-.006 1.945-3.968c.319-.649.887-.908 1.481-.888s1.143.315 1.417.984a3.599 3.599 0 0 0 3.191 2.229h.006l.12.002a3.594 3.594 0 0 0 3.215-1.987l.009-.021 1.947-3.971a1 1 0 0 0-.452-1.336l-.006-.003z"/></symbol><symbol id="icon-bird" viewBox="0 0 41 32"><path d="M19.392 27.1c.244.188.491.363.741.527.272.181.544.363.842.432.149.034.23-.145.144-.283-.189-.202-.469-.345-.713-.481l-.842-.432c-.14-.072-.341.119-.172.237zm-3.588-1.619c.449.775 1.072 1.473 1.794 1.916.684.434 1.638.892 2.461.726.083-.02.118-.171.006-.196-.355-.161-.736-.209-1.108-.295a4.154 4.154 0 0 1-1.145-.547l.014.009a4.848 4.848 0 0 1-1.825-1.708l-.012-.02c-.057-.092-.232-.014-.183.116zm9.548-8.227a2.53 2.53 0 0 0 .284-.211c.046-.029.072-.141.006-.196-.029-.047-.094-.101-.178-.081l-.321.203c-.046.029-.109.133-.052.225s.169.118.261.06zm-4.077 1.35c.02.084.114.184.134.268a.52.52 0 0 1 .077.176c.086.139.366.282.515.317.43.178.903.169 1.307-.054a.187.187 0 0 0 .06-.263v.001a19.979 19.979 0 0 1-.552-.834l-.057-.097-.321.203a1.107 1.107 0 0 0 1.59.249c.43-.336.555-1.215.094-1.598-.198-.164-.444.056-.33.24.2.323.308.703-.002 1.027-.301.286-.794.212-1.031-.12-.152-.193-.473.009-.321.203.157.222.358.525.552.834l.057.097.061-.263a1.121 1.121 0 0 1-1.082.065l.007.003c-.14-.072-.235-.173-.375-.245-.037-.008-.083.02-.112-.026-.075-.017-.114-.184-.18-.239-.02-.084-.112-.026-.092.058zm-7.879-3.083c-.275.174-.448.41-.48.719.002.158.097.259.226.21.611-.096.99-.72.851-1.305-.051-.289-.438-.141-.424.139.08.335-.173.75-.543.823a.848.848 0 0 1 .235.173.685.685 0 0 1 .27-.491c.146-.124.003-.355-.134-.268zM2.002 19.173c.725.088 1.412.168 2.146.219.264.043.605.082.95.109l.044.003c.344.04.725.088 1.02-.002.121-.012.164-.199.061-.263-.318-.152-.679-.117-.985-.148.005-.006-.355-.035-.715-.062l-.326-.02a34.588 34.588 0 0 0-2.172-.106c-.158.003-.173.237-.024.271zm5.994 2.411c-.178.433-.282.883-.395 1.371l-.156.675c-.052.225-.178.433-.073.655.057.092.131.109.223.052.155-.162.161-.358.213-.583l.165-.713c.058-.25.216-.938.246-1.405.026-.112-.197-.164-.224-.052zm-1.471-6.543c-.225.975-.367 1.93-.555 2.914l-.452 2.978c-.026.113.022.242.134.268 1.134.183 2.256.363 3.366.54.552.101 1.107.189 1.664.266.334.046.615.099.891.164l-.063-.013c.269.023.521.12.742.013.121-.012.164-.199.061-.263-.16-.156-.392-.17-.624-.184a8.012 8.012 0 0 0-.779-.146l-.049-.006a40.362 40.362 0 0 1-1.739-.283c-1.11-.177-2.232-.357-3.366-.54l.171.276c.157-1.017.31-2.023.461-3.015.188-.984.339-1.977.406-2.949-.003-.158-.198-.164-.269-.023zm2.893 2.762c-.166-.473-.477-.821-.772-1.245l-.835-1.141c-.209-.285-.429-.692-.784-.853-.309-.19-.65-.071-.926.103-.404.222-.715.546-1.09.815-.46.339-.85.65-1.229.973l.03-.025-2.382 1.821c-.1.096-.135.245-.003.355L5.419 23.4c.311.34.623.708.922 1.087l.033.043c.171.182.344.376.511.575l.018.022c.114.184.237.331.443.458.355.161.656-.125.941-.336l1.096-1.011a32.992 32.992 0 0 0 2.326-2.349l.028-.031c.247-.22-.139-.585-.358-.32a49.485 49.485 0 0 1-2.373 2.385l-.026.024-.695.63c-.146.124-.373.428-.585.497-.098.083-.185.063-.261-.06a.594.594 0 0 1-.121-.144l-.002-.003a3.458 3.458 0 0 0-.312-.349 17.915 17.915 0 0 1-.56-.656l-.026-.033A586.048 586.048 0 0 0 .76 17.114l.977 1.169c-.026.102-.04.219-.04.339v.008c1.368-1.054 2.75-2.118 4.149-3.191.238-.182.657-.639 1.004-.44.177.081.255.256.377.403.147.201.287.375.434.542l-.008-.009c.264.386.51.713.769 1.028l-.02-.025c.238.331.466.7.833.982.066.055.195.005.183-.116zm12.329-5.491c.46-.803.831-1.902.455-2.819a1.825 1.825 0 0 0-1.084-1.08c-.616-.221-1.283-.217-1.899-.438-1.885-.672-2.855-2.754-4.002-4.243-.663-.865-1.456-1.68-2.464-2.07a.245.245 0 0 0-.35.156c-.573 1.804.974 3.426 2.208 4.54.059-.144.128-.273.207-.387-.682-.276-1.363-.552-2.025-.744-.475-.149-.994-.111-1.264.38-.207.387-.013.906.224 1.237.398.487 1.076.604 1.529 1.025a2.13 2.13 0 0 0 .281-.37c-1.125-.734-2.705-.348-3.437.787-.055.066-.006.196.051.288a5.78 5.78 0 0 0 3.494 1.518c.232.014.281-.37.104-.45-.925-.411-2.633-.489-2.919.749-.119.684.327 1.301.889 1.588.739.368 1.616.136 2.364-.047.295-.09.158-.517-.128-.464-.628.171-1.293.334-1.872.121-.475-.149-.91-.645-.752-1.161.265-.808 1.595-.62 2.165-.37l.104-.45a5.434 5.434 0 0 1-3.13-1.394c.032.086.05.183.051.288.597-.889 1.882-1.186 2.801-.578.206.126.441-.214.244-.378-.321-.311-.75-.489-1.125-.734-.309-.19-.687-.593-.517-.989.216-.424.889-.111 1.177-.005.529.201 1.061.39 1.595.566.215.089.367-.231.199-.349-1.102-1.005-2.572-2.451-2.033-4.105l-.35.157c1.755.721 2.741 2.569 3.85 4.05.503.709 1.135 1.368 1.885 1.858.338.236.73.405 1.177.509.633.146 1.421.13 1.985.577.93.728.575 2.266.172 3.161-.063.104.077.176.14.072zm6.685 8.418c.88-.073 1.812-.372 2.7-.483a23.007 23.007 0 0 1 2.726-.231l.033-.001h.106c.443 0 .882.014 1.317.041l-.059-.003c.39.011.862.002 1.226.125.186.043.644.267.547.521-.081.179-.376.269-.542.31a7.404 7.404 0 0 1-.674.2 7.214 7.214 0 0 1-3.058.163 2.108 2.108 0 0 0-.058.417v.004c.539.045 1.154.267 1.569.679.132.109.18.239-.012.392-.092.058-.212.07-.295.09a6.432 6.432 0 0 1-.786.174 5.381 5.381 0 0 1-2.985-.491l-.178.433c.335.078.977.186.993.624.085.652-.815.642-1.225.547a4.335 4.335 0 0 1-1.466-.615c-.487-.27-.873-.636-1.305-.973-.16-.155-.482.047-.339.277.455.579 1.139 1.014 1.774 1.319s1.383.635 2.077.519c.536-.113 1.084-.619.953-1.242-.177-.594-.839-.786-1.36-.907-.232-.014-.393.344-.141.442 1.271.61 2.804.766 4.16.328.553-.188 1.018-.674.509-1.186s-1.274-.768-1.962-.848c-.232-.014-.29.407-.029.467 1.031.12 2.097.089 3.095-.155.536-.113 2.061-.433 1.676-1.312-.374-.758-1.44-.728-2.145-.733a24.399 24.399 0 0 0-3.458.103l.102-.008c-.699.088-1.296.195-1.882.33l.125-.024c-.611.096-1.23.23-1.8.493-.092.058-.052.225.068.213zm-11.481-7.352c-.055.066-.221.107-.287.053-.037-.009-.103-.063-.094-.101a.576.576 0 0 1-.18-.239c-.106-.222-.183-.398-.306-.545a2.612 2.612 0 0 0-.849-.667l-.015-.007a2.682 2.682 0 0 0-2.224.119c-.754.379-1.346 1.072-1.685 1.863-.179.433-.291.921-.432 1.362-.163.474-.42.878-.75 1.21-.749.697-1.744 1.099-2.656 1.481-.166.04-.236.341-.058.421 1.037.437 2.195.349 3.121-.267a1.22 1.22 0 0 0-.278-.031h-.03.001c1.049 1.23 1.373 2.885 2.064 4.309.708 1.349 1.775 2.504 3.023 3.385 2.476 1.678 5.689 1.867 8.325.302 1.36-.793 2.471-2.037 3.049-3.524.107-.292-.306-.545-.412-.253-1.033 2.607-3.75 4.35-6.495 4.349-2.949.03-5.688-1.867-7.019-4.426-.794-1.488-1.109-3.18-2.216-4.503a.233.233 0 0 0-.269-.023 2.827 2.827 0 0 1-2.649.258c-.01.156-.016.299-.021.43.82-.324 1.686-.678 2.438-1.215.332-.278.623-.587.874-.927l.01-.015c.253-.416.403-.895.553-1.374.254-.929.731-1.807 1.594-2.319.772-.454 1.783-.418 2.441.129.19.156.343.35.45.569l.004.01c.077.176.183.398.398.487.243.135.65.071.72-.229.026-.113-.086-.139-.14-.072zm.241-.023c.447.103.603-.572.156-.675s-.603.572-.156.675zm-1.432 2.633c.887-1.293 1.988-2.561 3.37-3.341a5.945 5.945 0 0 1 1.124-.499l.044-.012c.932-.298 1.932-.384 2.892-.123.997.27 1.723 1.03 2.568 1.62 1.314.935 3.007 1.247 4.615.907a5.444 5.444 0 0 0 2.22-.949c.33-.24.623-.488.895-.821.264-.295.574-.618.97-.803.359-.194.825-.007.796.46-.058.421-.34.791-.604 1.085-.858.829-1.877 1.503-2.952 2.084-.092.058-.126.208-.078.338.237.331.601.455.956.616.14.072.346.199.34.395-.043.188-.301.286-.476.364-.499.122-1.029.039-1.53.002l-2.006-.147.045.485c.444-.056.854.039 1.22.321.094.101.367.282.332.432.022.242-.459.289-.625.33a3.797 3.797 0 0 1-2.667-.339c-.169-.118-.444.055-.376.269.26.574.058 1.278-.521 1.579-.533.272-1.281-.059-1.504-.624-.134-.268-.633-.146-.507.159.377.917-.564 1.767-1.399 1.811-1.232.071-2.021-1.099-2.601-1.984-.246-.294-.668.004-.505.318.594 1.165 1.913 2.417 3.346 2.155 1.063-.189 2.103-1.292 1.666-2.46a4.053 4.053 0 0 1-.508.159c.357.833 1.31 1.291 2.176.937.82-.324 1.183-1.387.818-2.182a14.91 14.91 0 0 1-.339.277 4.106 4.106 0 0 0 1.875.513h.006c.576.054 1.373.001 1.886-.355.551-.347.225-.976-.17-1.304-.415-.412-1.039-.596-1.65-.5-.324.044-.262.454.045.485a72.42 72.42 0 0 0 2.387.195c.576.054 1.16.07 1.665-.248.376-.269.526-.748.26-1.125-.295-.424-.925-.411-1.228-.797l-.078.338a15.463 15.463 0 0 0 2.823-1.975l-.017.014c.502-.477 1.194-1.265.903-2.044-.117-.343-.446-.617-.798-.619-.418-.057-.785.174-1.115.414a19.1 19.1 0 0 0-.967.962 4.58 4.58 0 0 1-1.119.769c-1.572.862-3.584.911-5.147.037-.936-.532-1.683-1.376-2.682-1.804-.934-.374-1.982-.418-2.971-.212-2.377.439-4.136 2.285-5.412 4.243-.163.199.183.398.309.19z"/></symbol><symbol id="icon-briefcase" viewBox="0 0 32 32"><path d="M13 4a4 4 0 0 0-4 4v3a1 1 0 0 0 1 1h12a1 1 0 0 0 1-1V8a4.001 4.001 0 0 0-4-4zm0 2h6.001C20.105 6 21 6.895 21 7.999V10H11V8v-.001C11 6.895 11.895 6 12.999 6H13zm-4 4a5.004 5.004 0 0 0-.008 10H23a5.004 5.004 0 0 0 .008-10H23zm0 2h14a3 3 0 1 1 0 6H9a3 3 0 1 1 0-6zm0-2a5.014 5.014 0 0 0-5 4.999V23a5.014 5.014 0 0 0 4.999 5H23a5.014 5.014 0 0 0 5-4.999V15a5.014 5.014 0 0 0-4.999-5H23zm0 2h14c1.669 0 3 1.331 3 3v8c0 1.669-1.331 3-3 3H8.985A2.985 2.985 0 0 1 6 23.015V23v.001-8c0-1.669 1.331-3 3-3z"/></symbol><symbol id="icon-presentation" viewBox="0 0 32 32"><path fill="none" stroke-width="2" stroke-linecap="round" stroke-linejoin="round" d="M23 5H9a4 4 0 0 0-4 4v10a4 4 0 0 0 4 4h14a4 4 0 0 0 4-4V9a4 4 0 0 0-4-4z"/><path fill="none" stroke-width="2" stroke-linecap="round" stroke-linejoin="round" d="M13 9h-2a2 2 0 0 0-2 2v2a2 2 0 0 0 2 2h2a2 2 0 0 0 2-2v-2a2 2 0 0 0-2-2zm6 1h4m-4 4h4M9 19h14m-7 4l4 4m-4-4l-4 4"/></symbol><symbol id="icon-Add" viewBox="0 0 32 32"><path fill="none" stroke-width="1.454" stroke-linecap="round" d="M1.455 16h29.091M16 30.545V1.454"/></symbol><symbol id="icon-Text" viewBox="0 0 32 32"><path d="M6.748 26.727zm-1.475-1.475zm21.454 0zm-1.475 1.475zm0-21.454zm1.475 1.475zM6.748 5.273zM5.273 6.748zm13.394 16.919a1 1 0 0 0 0-2v2zm-5.334-2a1 1 0 0 0 0 2v-2zm7-8.334a1 1 0 0 0 2 0h-2zm-10.666 0a1 1 0 0 0 2 0h-2zM16 27c-2.522 0-4.333-.001-5.736-.153-1.384-.15-2.251-.437-2.928-.929L6.16 27.536c1.075.781 2.334 1.131 3.888 1.299 1.535.166 3.474.165 5.951.165v-2zM3 16c0 2.478-.001 4.416.165 5.951.168 1.554.518 2.813 1.299 3.888l1.618-1.176c-.492-.677-.779-1.544-.929-2.928C5.001 20.332 5 18.521 5 15.999H3zm4.336 9.918a5.672 5.672 0 0 1-1.254-1.254L4.464 25.84a7.665 7.665 0 0 0 1.696 1.696l1.176-1.618zM27 16c0 2.522-.001 4.333-.153 5.736-.15 1.384-.437 2.251-.929 2.928l1.618 1.176c.781-1.075 1.131-2.334 1.299-3.888.166-1.535.165-3.474.165-5.951h-2zM16 29c2.478 0 4.416.001 5.951-.165 1.554-.168 2.813-.518 3.888-1.299l-1.176-1.618c-.677.492-1.544.779-2.928.929-1.403.152-3.214.153-5.736.153v2zm9.918-4.336a5.672 5.672 0 0 1-1.254 1.254l1.176 1.618a7.665 7.665 0 0 0 1.696-1.696l-1.618-1.176zM16 5c2.522 0 4.333.001 5.736.153 1.384.15 2.251.437 2.928.929l1.176-1.618c-1.075-.781-2.334-1.131-3.888-1.299C20.417 2.999 18.478 3 16.001 3v2zm13 11c0-2.478.001-4.416-.165-5.951-.168-1.554-.518-2.813-1.299-3.888l-1.618 1.176c.492.677.779 1.544.929 2.928.152 1.403.153 3.214.153 5.736h2zm-4.336-9.918c.481.35.904.773 1.254 1.254l1.618-1.176a7.665 7.665 0 0 0-1.696-1.696l-1.176 1.618zM16 3c-2.478 0-4.416-.001-5.951.165-1.554.168-2.813.518-3.888 1.299l1.176 1.618c.677-.492 1.544-.779 2.928-.929C11.668 5.001 13.479 5 16.001 5V3zM5 16c0-2.522.001-4.333.153-5.736.15-1.384.437-2.251.929-2.928L4.464 6.16c-.781 1.075-1.131 2.334-1.299 3.888C2.999 11.583 3 13.522 3 15.999h2zM6.16 4.464A7.665 7.665 0 0 0 4.464 6.16l1.618 1.176c.35-.481.773-.904 1.254-1.254L6.16 4.464zm12.507 3.869H16v2h2.667v-2zm-2.667 0h-2.667v2H16v-2zm2.667 13.334H16v2h2.667v-2zm-2.667 0h-2.667v2H16v-2zM20.333 12v1.333h2V12h-2zM9.667 12v1.333h2V12h-2zM15 9.333v13.333h2V9.333h-2zm-1.667-1A3.667 3.667 0 0 0 9.666 12h2c0-.92.746-1.667 1.667-1.667v-2zm5.334 2c.921 0 1.667.746 1.667 1.667h2a3.667 3.667 0 0 0-3.667-3.667v2z"/></symbol><symbol id="icon-Image" viewBox="0 0 32 32"><path fill="none" stroke-width="2" stroke-linecap="round" d="M12 27.333l3.564-6.305c.173-.306.325-.575.461-.812m-.001 0c.421-.737.689-1.175.957-1.505a6.666 6.666 0 0 1 9.033-1.231c.455.323.96.828 1.966 1.833m-11.956.903L15.333 20c-1.594-.319-2.391-.478-3.123-.463a6.67 6.67 0 0 0-5.033 2.461c-.461.568-.825 1.295-1.552 2.749l-.146.293-.161.273m22.662-6C28 18.347 28 17.252 28 16c0-5 0-7.499-1.273-9.252a6.658 6.658 0 0 0-1.475-1.475C23.5 4 21 4 16 4S8.501 4 6.748 5.273a6.658 6.658 0 0 0-1.475 1.475C4 8.5 4 11 4 16s0 7.499 1.273 9.252l.045.061m22.662-6c-.06 2.891-.299 4.625-1.253 5.939a6.658 6.658 0 0 1-1.475 1.475C23.5 28 21 28 16 28s-7.499 0-9.252-1.273a6.68 6.68 0 0 1-1.43-1.414M12 12a2.667 2.667 0 1 0 5.334 0A2.667 2.667 0 0 0 12 12z"/></symbol><symbol id="icon-Graph" viewBox="0 0 32 32"><path d="M24.644 24.665zM8 8.021zm4.022-1.728zm14.35 14.35zM23.259 2.912zm6.494 6.494zm-3.799 4.592zm-1.287 0zm-6-6zm0-1.287zm6.729 13.712a11.006 11.006 0 0 1-1.583 3.687l1.663 1.111a12.988 12.988 0 0 0 1.871-4.357l-1.951-.441zm-1.583 3.687a10.998 10.998 0 0 1-4.937 4.051l.765 1.848a12.999 12.999 0 0 0 5.834-4.788l-1.663-1.111zm-4.937 4.051a10.999 10.999 0 0 1-6.355.626l-.39 1.962c2.522.502 5.136.244 7.511-.74l-.765-1.848zm-6.355.626a10.99 10.99 0 0 1-5.632-3.011L5.475 27.19a13.002 13.002 0 0 0 6.656 3.558l.39-1.962zm-5.633-3.01a10.996 10.996 0 0 1-3.01-5.632l-1.962.39a13.002 13.002 0 0 0 3.558 6.656l1.414-1.414zm-3.01-5.633a10.998 10.998 0 0 1 .626-6.355l-1.848-.765a13.004 13.004 0 0 0-.74 7.511l1.962-.39zm.626-6.355a11.004 11.004 0 0 1 4.051-4.937L7.444 7.189a12.999 12.999 0 0 0-4.788 5.834l1.848.765zm4.051-4.937a10.986 10.986 0 0 1 3.687-1.583l-.441-1.951c-1.547.35-3.025.981-4.357 1.871l1.111 1.663zm5.112-.187v2.667h2V8.665h-2zm7.666 10.333H24v-2h-2.667v2zm-7.666-7.666a7.667 7.667 0 0 0 7.667 7.667v-2a5.667 5.667 0 0 1-5.667-5.667h-2zm-1.425-4.063c.657-.148 1.424.396 1.424 1.396h2c0-1.946-1.649-3.848-3.865-3.347l.441 1.951zm15.105 13.595c.501-2.216-1.401-3.865-3.347-3.865v2c1 0 1.545.768 1.396 1.424l1.951.441zM22.876 3.836a10.999 10.999 0 0 1 3.569 2.385l1.414-1.414a12.996 12.996 0 0 0-4.217-2.818l-.765 1.848zm3.569 2.384a11.004 11.004 0 0 1 2.385 3.569l1.848-.765a13.011 13.011 0 0 0-2.818-4.218L26.446 6.22zm-.491 6.778h-1.288v2h1.288v-2zm-6.287-5V6.71h-2v1.288h2zm9.162 1.791c.336.81.15 1.559-.375 2.153-.548.62-1.467 1.057-2.5 1.057v2c1.57 0 3.048-.657 3.998-1.732.973-1.101 1.385-2.648.725-4.243l-1.848.765zm-4.162 3.209a5 5 0 0 1-5-5h-2a7 7 0 0 0 7 7v-2zm-1.025-11.01c-1.594-.66-3.142-.248-4.243.725-1.075.95-1.732 2.428-1.732 3.998h2c0-1.032.437-1.952 1.057-2.5.594-.525 1.343-.711 2.153-.375l.765-1.848z"/></symbol><symbol id="icon-Virus" viewBox="0 0 32 32"><path fill="none" stroke-width="2" stroke-linecap="round" d="M16 22.667v6.667m0-6.667a6.646 6.646 0 0 0 4.667-1.906M16 22.667a6.646 6.646 0 0 1-4.667-1.906m2 8.572h5.333M9.333 16H2.666m6.667 0c0-1.865.766-3.551 2-4.761m-2 4.761c0 1.865.766 3.551 2 4.761m-8.666-7.428v5.333m20-2.666h6.667m-6.667 0a6.648 6.648 0 0 0-2-4.761m2 4.761a6.648 6.648 0 0 1-2 4.761m8.666-2.094v-5.333M16 9.333V2.666m0 6.667a6.646 6.646 0 0 0-4.667 1.906M16 9.333c1.817 0 3.464.727 4.667 1.906m-7.334-8.572h5.333m7.543 23.542l-4.876-4.876-.666-.572m3.656 7.334l3.771-3.771M5.886 5.886l4.781 4.781.667.573M7.772 4L4.001 7.771m22.208-1.885l-4.876 4.781-.667.572M24.323 4l3.771 3.771M5.886 26.209l4.781-4.876.666-.572m-3.561 7.334l-3.771-3.771"/></symbol><symbol id="icon-Star1" viewBox="0 0 32 32"><path fill="none" stroke="#0057ff" stroke-width="2" stroke-linecap="round" d="M18.666 10.515c.43 1.27 1.664 2.13 3.057 2.13M6.797 9.353a4.838 4.838 0 0 0 4.601-3.343c1.448-4.458 7.755-4.458 9.203 0a4.838 4.838 0 0 0 4.601 3.343c4.687 0 6.636 5.998 2.844 8.752a4.839 4.839 0 0 0-1.758 5.409c1.448 4.458-3.653 8.164-7.445 5.409a4.839 4.839 0 0 0-5.688 0c-3.792 2.755-8.894-.952-7.445-5.409a4.837 4.837 0 0 0-1.758-5.409C.16 15.35 2.109 9.353 6.796 9.353z"/></symbol><symbol id="icon-Filter" viewBox="0 0 32 32"><path d="M16 5.667a1 1 0 0 0 0 2v-2zm10.667 2a1 1 0 0 0 0-2v2zM16 24.333a1 1 0 0 0 0 2v-2zm10.667 2a1 1 0 0 0 0-2v2zM16 17a1 1 0 0 0 0-2v2zM5.333 15a1 1 0 0 0 0 2v-2zM16 7.667h10.667v-2H16v2zm0 18.666h10.667v-2H16v2zM16 15H5.333v2H16v-2zM4.333 6.667A3.667 3.667 0 0 0 8 10.334v-2c-.92 0-1.667-.746-1.667-1.667h-2zM8 10.333a3.667 3.667 0 0 0 3.667-3.667h-2c0 .92-.746 1.667-1.667 1.667v2zm3.667-3.666A3.667 3.667 0 0 0 8 3v2c.92 0 1.667.746 1.667 1.667h2zM8 3a3.667 3.667 0 0 0-3.667 3.667h2C6.333 5.747 7.079 5 8 5V3zM4.333 25.333A3.667 3.667 0 0 0 8 29v-2c-.92 0-1.667-.746-1.667-1.667h-2zM8 29a3.667 3.667 0 0 0 3.667-3.667h-2C9.667 26.254 8.921 27 8 27v2zm3.667-3.667A3.667 3.667 0 0 0 8 21.666v2c.92 0 1.667.746 1.667 1.667h2zM8 21.667a3.667 3.667 0 0 0-3.667 3.667h2c0-.921.746-1.667 1.667-1.667v-2zM27.667 16A3.667 3.667 0 0 0 24 12.333v2c.921 0 1.667.746 1.667 1.667h2zM24 12.333A3.667 3.667 0 0 0 20.333 16h2c0-.921.746-1.667 1.667-1.667v-2zM20.333 16A3.667 3.667 0 0 0 24 19.667v-2A1.667 1.667 0 0 1 22.333 16h-2zM24 19.667A3.667 3.667 0 0 0 27.667 16h-2c0 .921-.746 1.667-1.667 1.667v2z"/></symbol></defs></svg>