<svg width="156" height="32" viewBox="0 0 156 32" fill="none" xmlns="http://www.w3.org/2000/svg">
<g clip-path="url(#clip0_481_11)">
<mask id="mask0_481_11" style="mask-type:luminance" maskUnits="userSpaceOnUse" x="0" y="0" width="157" height="32">
<path d="M156.001 0H0.000976562V32H156.001V0Z" fill="white"/>
</mask>
<g mask="url(#mask0_481_11)">
<path d="M9.32084 30.0552C8.33409 29.7661 7.63616 29.2073 7.37077 28.1785C7.19847 27.5106 7.29055 26.8718 7.63973 26.3026C7.80102 26.0398 7.81865 25.8419 7.70423 25.583C7.30213 24.673 6.90042 23.7627 6.51144 22.8469C6.12312 21.9326 5.75498 21.0095 5.36891 20.0942C5.1124 19.4862 4.83993 18.8851 4.5725 18.276C3.8047 18.2689 3.09265 18.0894 2.55477 17.491C2.16622 17.0587 1.90332 16.5728 1.91233 15.9397C1.92076 15.3479 1.96249 14.8021 2.3011 14.2851C2.84245 13.4587 4.05574 12.9936 4.94678 13.2938C5.36027 13.433 5.74798 13.6063 6.02894 13.9617C6.21358 14.1952 6.42522 14.2168 6.70405 14.1392C7.62324 13.883 8.54867 13.6498 9.47442 13.4191C9.83487 13.3292 9.72606 13.0089 9.77203 12.7886C9.83939 12.4654 9.83812 12.126 9.85232 11.7929C9.88142 11.1109 9.89243 10.4281 9.92745 9.74645C9.96356 9.0445 10.0209 8.34363 10.0658 7.64207C10.0774 7.45915 10.027 7.3661 9.83869 7.2404C9.15006 6.78088 8.71078 6.13899 8.64252 5.25369C8.58337 4.48612 8.82164 3.82321 9.30721 3.29099C9.69218 2.86909 10.2097 2.59972 10.8117 2.56597C11.4441 2.53051 12.0207 2.63645 12.5521 3.03265C13.2539 3.55588 13.7719 4.62157 13.5085 5.45611C13.3095 6.08658 13.4973 6.5053 13.8395 6.96591C14.8807 8.36725 15.9037 9.78293 16.9443 11.1847C17.0016 11.2618 17.1681 11.3162 17.2625 11.2927C18.1547 11.0697 19.0438 10.833 19.9309 10.5896C21.0163 10.2918 22.0975 9.97807 23.1836 9.68322C23.5833 9.57474 23.9918 9.50037 24.4179 9.40565C24.4304 8.6429 24.7566 8.01224 25.3655 7.55893C25.9659 7.11183 26.637 6.94146 27.385 7.12219C28.037 7.27976 28.5761 7.60699 28.9106 8.19547C29.777 9.71957 29.1383 11.6906 27.2782 12.0496C26.4421 12.2108 25.73 11.9919 25.1704 11.364C24.8189 10.9697 24.4582 11.1897 24.1256 11.2751C22.8674 11.598 21.622 11.9732 20.3681 12.3143C19.6522 12.5091 18.929 12.6759 18.1837 12.8615C18.5572 13.3911 18.8915 13.885 19.2519 14.358C19.3204 14.4478 19.5056 14.5156 19.6151 14.4912C21.0964 14.1608 22.1994 15.1866 22.5044 16.4455C22.6421 17.0137 22.5167 17.6007 22.2639 18.1451C22.2224 18.2344 22.2257 18.3969 22.2796 18.4728C22.815 19.2268 23.3653 19.9697 23.9085 20.7118C25.4128 20.4525 26.2954 20.9197 26.8675 22.1436C27.3669 23.2119 27.0873 24.3931 26.0259 25.1928C25.0672 25.9152 23.8236 25.7882 23.0358 25.0986C22.0835 24.2647 21.8215 22.9824 22.5062 21.7866C22.21 21.3757 21.9177 20.9644 21.6192 20.5578C21.3358 20.1719 21.0459 19.7911 20.7934 19.4542C20.2052 19.4115 19.6477 19.3712 19.0131 19.3253C18.0805 20.2906 17.0603 21.346 16.0409 22.4023C15.6507 22.8066 15.263 23.2135 14.8732 23.6182C13.9659 24.56 13.0508 25.4942 12.1612 26.453C12.0718 26.5495 12.1045 26.7985 12.1317 26.9683C12.3548 28.3615 12.0277 29.0556 10.977 29.7831C10.5153 30.1029 9.91816 30.1063 9.32084 30.0552ZM10.8455 24.513C10.8309 24.7555 10.8163 24.998 10.8004 25.2638C11.0337 25.0501 11.2686 24.8581 11.4772 24.6398C12.7255 23.3343 13.9658 22.0209 15.2125 20.7137C16.0163 19.871 16.8304 19.0384 17.6275 18.189C17.707 18.1043 17.7412 17.9297 17.7262 17.8056C17.6423 17.1118 17.504 16.421 17.901 15.7662C17.9475 15.6894 17.9237 15.5143 17.8665 15.4341C17.4307 14.8237 16.9651 14.2353 16.5387 13.6184C16.3844 13.3952 16.1999 13.3797 16.0011 13.4314C15.3115 13.6108 14.6283 13.8153 13.9407 14.003C13.221 14.1995 12.4987 14.3856 11.7786 14.5807C11.5625 14.6392 11.3569 14.7163 11.3411 15.0013C11.3207 15.3703 11.2929 15.7388 11.2706 16.1076C11.1993 17.286 11.1199 18.464 11.0608 19.6431C10.9807 21.2426 10.9165 22.8431 10.8455 24.513ZM6.74404 18.937C7.49876 20.7032 8.25348 22.4695 9.05163 24.3374C9.09919 24.1224 9.13504 24.0172 9.14414 23.9096C9.1954 23.3055 9.25494 22.7015 9.28435 22.0961C9.36369 20.4611 9.42813 18.8255 9.50173 17.1903C9.51027 17.0016 9.5456 16.8142 9.55745 16.6254C9.58636 16.1658 9.60877 15.7057 9.63659 15.1936C9.27098 15.2846 8.95007 15.364 8.62928 15.4443C8.03858 15.5921 7.44693 15.7361 6.85916 15.8954C6.80612 15.9097 6.74563 16.0227 6.7448 16.0906C6.73773 16.6576 6.42726 17.081 6.12999 17.5121C6.33128 17.9647 6.53506 18.4228 6.74404 18.937ZM11.6952 8.62466C11.6311 10.0242 11.5671 11.4237 11.5018 12.8492C12.7493 12.5141 13.9634 12.188 15.2448 11.8438C14.1284 10.3109 13.0722 8.86056 11.9497 7.31919C11.8688 7.50427 11.7903 7.61749 11.7715 7.74018C11.7301 8.00949 11.7188 8.2836 11.6952 8.62466ZM25.0226 23.7591C25.1037 23.6608 25.2386 23.5708 25.2548 23.4624C25.2889 23.2346 25.3241 22.9701 25.2428 22.7699C25.1295 22.4907 24.6583 22.3124 24.4181 22.4033C24.1533 22.5036 23.939 22.6745 23.8735 22.9811C23.7551 23.5357 24.3732 24.1514 25.0226 23.7591ZM26.9302 8.78997C26.5879 8.74651 26.3682 8.95163 26.2214 9.21525C26.0701 9.48693 26.0829 9.78447 26.2778 10.0496C26.4931 10.3424 26.8065 10.3761 27.1008 10.2805C27.3911 10.1861 27.5509 9.94831 27.563 9.59957C27.5784 9.15579 27.2843 8.98178 26.9302 8.78997ZM3.91857 15.1038C3.8695 15.1554 3.8165 15.2038 3.77205 15.2593C3.58506 15.4929 3.52825 15.9636 3.73266 16.1466C3.92513 16.319 4.20747 16.5027 4.43842 16.4879C4.81837 16.4636 5.03926 16.1091 5.04027 15.7418C5.0419 15.1488 4.62179 14.8854 3.91857 15.1038ZM19.8523 17.6641C20.412 17.7146 20.8381 17.476 20.7667 16.8397C20.7181 16.4068 20.3177 16.0764 19.9066 16.2037C19.6049 16.297 19.3919 16.4909 19.3475 16.811C19.2948 17.1905 19.4513 17.475 19.8523 17.6641ZM10.8263 4.3761C10.6896 4.54602 10.4964 4.69528 10.4282 4.89019C10.2898 5.28608 10.4021 5.50111 10.7497 5.69449C11.0873 5.88229 11.3974 5.85458 11.6172 5.56695C11.7926 5.33743 11.9542 5.07937 11.7572 4.76378C11.484 4.3262 11.296 4.23697 10.8263 4.3761ZM9.58273 26.8257C9.22259 26.9783 9.02909 27.2165 9.06665 27.6517C9.10594 28.1075 9.49702 28.4211 9.9286 28.2803C10.4039 28.1253 10.5383 27.7593 10.4904 27.4272C10.4412 27.087 10.0682 26.8156 9.58273 26.8257Z" fill="#0057FF"/>
<path d="M36.4635 18.8539H45.9304V20.605H36.4635V18.8539ZM35.2715 24.9595H33.1855L40.0394 8.83154H42.4233L49.2771 24.9595H47.1912L41.2313 10.7669L35.2715 24.9595ZM54.7407 19.9829C51.8983 19.4914 50.4772 18.3624 50.4772 16.596C50.4772 15.5976 50.8592 14.7759 51.6233 14.1307C52.3874 13.4703 53.3425 13.14 54.4886 13.14C55.543 13.14 56.4905 13.4319 57.331 14.0155C58.1867 14.5992 58.798 15.3826 59.1648 16.3656L57.4227 16.9877C57.1629 16.3119 56.7732 15.7819 56.2536 15.3979C55.7493 15.0139 55.1763 14.8219 54.5344 14.8219C53.8926 14.8219 53.3577 14.9832 52.9299 15.3058C52.5173 15.6283 52.311 16.0277 52.311 16.5039C52.311 16.9493 52.5173 17.3103 52.9299 17.5867C53.3577 17.8632 54.0378 18.0859 54.97 18.2549C57.9652 18.7771 59.4628 19.9599 59.4628 21.8031C59.4628 22.7707 59.0425 23.5848 58.202 24.2453C57.3768 24.8904 56.3682 25.213 55.1763 25.213C54.0607 25.213 53.0445 24.9365 52.1276 24.3835C51.226 23.8306 50.5841 23.0856 50.2021 22.1487L51.8754 21.4344C52.1658 22.0949 52.5937 22.6171 53.1591 23.0011C53.7398 23.3851 54.3969 23.5771 55.1304 23.5771C55.8487 23.5771 56.4446 23.4159 56.9184 23.0933C57.3921 22.7554 57.629 22.333 57.629 21.8261C57.629 20.9352 56.6662 20.3208 54.7407 19.9829ZM65.7093 19.9829C62.8671 19.4914 61.4459 18.3624 61.4459 16.596C61.4459 15.5976 61.8279 14.7759 62.592 14.1307C63.3561 13.4703 64.311 13.14 65.4572 13.14C66.5116 13.14 67.4591 13.4319 68.2996 14.0155C69.1553 14.5992 69.7666 15.3826 70.1333 16.3656L68.3912 16.9877C68.1315 16.3119 67.7418 15.7819 67.2222 15.3979C66.7179 15.0139 66.1448 14.8219 65.503 14.8219C64.8612 14.8219 64.3263 14.9832 63.8984 15.3058C63.486 15.6283 63.2797 16.0277 63.2797 16.5039C63.2797 16.9493 63.486 17.3103 63.8984 17.5867C64.3263 17.8632 65.0064 18.0859 65.9385 18.2549C68.9337 18.7771 70.4313 19.9599 70.4313 21.8031C70.4313 22.7707 70.0111 23.5848 69.1706 24.2453C68.3454 24.8904 67.3368 25.213 66.1448 25.213C65.0293 25.213 64.0131 24.9365 63.0963 24.3835C62.1947 23.8306 61.5528 23.0856 61.1708 22.1487L62.8441 21.4344C63.1345 22.0949 63.5624 22.6171 64.1277 23.0011C64.7084 23.3851 65.3655 23.5771 66.099 23.5771C66.8172 23.5771 67.4132 23.4159 67.8869 23.0933C68.3607 22.7554 68.5975 22.333 68.5975 21.8261C68.5975 20.9352 67.6348 20.3208 65.7093 19.9829ZM72.5981 11.2047C72.3536 10.9589 72.2314 10.6594 72.2314 10.3061C72.2314 9.95282 72.3536 9.66098 72.5981 9.43058C72.8427 9.18482 73.133 9.06194 73.4692 9.06194C73.8207 9.06194 74.111 9.18482 74.3403 9.43058C74.5848 9.66098 74.707 9.95282 74.707 10.3061C74.707 10.6594 74.5848 10.9589 74.3403 11.2047C74.111 11.4351 73.8207 11.5503 73.4692 11.5503C73.133 11.5503 72.8427 11.4351 72.5981 11.2047ZM72.5523 24.9595V13.4395H74.3861V24.9595H72.5523ZM81.1107 19.9829C78.2683 19.4914 76.8471 18.3624 76.8471 16.596C76.8471 15.5976 77.2291 14.7759 77.9932 14.1307C78.7573 13.4703 79.7124 13.14 80.8585 13.14C81.9129 13.14 82.8604 13.4319 83.7009 14.0155C84.5567 14.5992 85.1679 15.3826 85.5347 16.3656L83.7926 16.9877C83.5328 16.3119 83.1431 15.7819 82.6235 15.3979C82.1192 15.0139 81.5462 14.8219 80.9044 14.8219C80.2625 14.8219 79.7277 14.9832 79.2998 15.3058C78.8872 15.6283 78.6809 16.0277 78.6809 16.5039C78.6809 16.9493 78.8872 17.3103 79.2998 17.5867C79.7277 17.8632 80.4077 18.0859 81.3399 18.2549C84.3351 18.7771 85.8327 19.9599 85.8327 21.8031C85.8327 22.7707 85.4124 23.5848 84.5719 24.2453C83.7467 24.8904 82.7382 25.213 81.5462 25.213C80.4306 25.213 79.4144 24.9365 78.4975 24.3835C77.5959 23.8306 76.954 23.0856 76.572 22.1487L78.2453 21.4344C78.5357 22.0949 78.9636 22.6171 79.529 23.0011C80.1097 23.3851 80.7668 23.5771 81.5003 23.5771C82.2186 23.5771 82.8146 23.4159 83.2883 23.0933C83.762 22.7554 83.9989 22.333 83.9989 21.8261C83.9989 20.9352 83.0361 20.3208 81.1107 19.9829ZM93.1373 23.2085H94.6043V24.9595H92.8852C91.7696 24.9595 90.8909 24.6754 90.2491 24.1071C89.6072 23.5387 89.2863 22.7707 89.2863 21.8031V15.1445H87.1775V13.4395H89.2863V10.0757L91.1201 9.70706V13.4395H94.6043V15.1445H91.1201V21.3883C91.1201 22.6018 91.7925 23.2085 93.1373 23.2085ZM103.563 19.6373L100.285 20.029C98.7418 20.2133 97.9701 20.8047 97.9701 21.8031C97.9701 22.3253 98.1841 22.7477 98.6119 23.0703C99.0398 23.3775 99.6129 23.5311 100.331 23.5311C101.309 23.5311 102.089 23.2392 102.669 22.6555C103.265 22.0719 103.563 21.3039 103.563 20.3515H104.365C104.365 21.7493 103.938 22.909 103.082 23.8306C102.226 24.7522 101.156 25.213 99.8727 25.213C98.7877 25.213 97.8861 24.9058 97.1678 24.2914C96.4649 23.6616 96.1134 22.8552 96.1134 21.8722C96.1287 20.9199 96.4649 20.1442 97.122 19.5451C97.7944 18.9307 98.7189 18.5544 99.8956 18.4162L103.563 18.0015V17.5407C103.563 16.8341 103.288 16.2197 102.738 15.6975C102.188 15.1752 101.515 14.9141 100.721 14.9141C100.003 14.9141 99.3684 15.1061 98.8182 15.4901C98.2681 15.8741 97.909 16.3733 97.7409 16.9877L96.0446 16.4347C96.335 15.4671 96.9004 14.6837 97.7409 14.0847C98.5814 13.4856 99.5365 13.1861 100.606 13.1861C101.905 13.1861 103.028 13.6008 103.976 14.4303C104.923 15.2443 105.397 16.2197 105.397 17.3563V24.9595H103.563V19.6373ZM108.034 24.9595V13.4395H109.868V24.9595H108.034ZM116.011 24.9595V18.1397C116.011 17.1567 115.736 16.381 115.186 15.8127C114.651 15.2443 113.948 14.9602 113.077 14.9602C112.19 14.9602 111.434 15.2751 110.807 15.9048C110.181 16.5192 109.868 17.2642 109.868 18.1397H108.859C108.859 16.788 109.317 15.6283 110.234 14.6607C111.151 13.6776 112.267 13.1861 113.581 13.1861C114.788 13.1861 115.797 13.6085 116.607 14.4533C117.432 15.2981 117.845 16.3963 117.845 17.748V24.9595H116.011ZM125.327 23.2085H126.794V24.9595H125.075C123.96 24.9595 123.081 24.6754 122.439 24.1071C121.797 23.5387 121.476 22.7707 121.476 21.8031V15.1445H119.368V13.4395H121.476V10.0757L123.31 9.70706V13.4395H126.794V15.1445H123.31V21.3883C123.31 22.6018 123.983 23.2085 125.327 23.2085Z" fill="white"/>
<path d="M137.623 18.8539H147.09V20.605H137.623V18.8539ZM136.431 24.9595H134.345L141.199 8.83154H143.582L150.436 24.9595H148.35L142.391 10.7669L136.431 24.9595ZM154.28 24.9595H152.446V8.83154H154.28V24.9595Z" fill="#0057FF"/>
</g>
</g>
<defs>
<clipPath id="clip0_481_11">
<rect width="156" height="32" fill="white"/>
</clipPath>
</defs>
</svg>
