<svg width="156" height="32" viewBox="0 0 156 32" fill="none" xmlns="http://www.w3.org/2000/svg">
<g clip-path="url(#clip0_481_53)">
<mask id="mask0_481_53" style="mask-type:luminance" maskUnits="userSpaceOnUse" x="0" y="-1" width="157" height="33">
<path d="M156.001 -0.00012207H0.000976562V31.9999H156.001V-0.00012207Z" fill="white"/>
</mask>
<g mask="url(#mask0_481_53)">
<path d="M9.32084 30.0549C8.33409 29.7659 7.63616 29.2071 7.37077 28.1783C7.19847 27.5104 7.29055 26.8715 7.63973 26.3024C7.80102 26.0395 7.81865 25.8416 7.70423 25.5827C7.30213 24.6727 6.90042 23.7625 6.51144 22.8466C6.12312 21.9324 5.75498 21.0092 5.36891 20.094C5.1124 19.4859 4.83993 18.8848 4.5725 18.2758C3.8047 18.2687 3.09265 18.0891 2.55477 17.4907C2.16622 17.0585 1.90332 16.5726 1.91233 15.9395C1.92076 15.3477 1.96249 14.8018 2.3011 14.2849C2.84245 13.4585 4.05574 12.9934 4.94678 13.2935C5.36027 13.4328 5.74798 13.606 6.02894 13.9614C6.21358 14.195 6.42522 14.2166 6.70405 14.1389C7.62324 13.8828 8.54867 13.6496 9.47442 13.4188C9.83487 13.329 9.72606 13.0087 9.77203 12.7883C9.83939 12.4652 9.83812 12.1257 9.85232 11.7927C9.88142 11.1107 9.89243 10.4278 9.92745 9.74621C9.96356 9.04425 10.0209 8.34339 10.0658 7.64182C10.0774 7.45891 10.027 7.36585 9.83869 7.24016C9.15006 6.78064 8.71078 6.13874 8.64252 5.25344C8.58337 4.48587 8.82164 3.82296 9.30721 3.29075C9.69218 2.86884 10.2097 2.59948 10.8117 2.56573C11.4441 2.53027 12.0207 2.63621 12.5521 3.03241C13.2539 3.55563 13.7719 4.62133 13.5085 5.45586C13.3095 6.08633 13.4973 6.50505 13.8395 6.96566C14.8807 8.36701 15.9037 9.78269 16.9443 11.1845C17.0016 11.2615 17.1681 11.316 17.2625 11.2924C18.1547 11.0695 19.0438 10.8327 19.9309 10.5893C21.0163 10.2915 22.0975 9.97782 23.1836 9.68297C23.5833 9.57449 23.9918 9.50013 24.4179 9.40541C24.4304 8.64265 24.7566 8.012 25.3655 7.55869C25.9659 7.11158 26.637 6.94121 27.385 7.12195C28.037 7.27952 28.5761 7.60675 28.9106 8.19523C29.777 9.71933 29.1383 11.6904 27.2782 12.0493C26.4421 12.2106 25.73 11.9916 25.1704 11.3637C24.8189 10.9694 24.4582 11.1895 24.1256 11.2748C22.8674 11.5977 21.622 11.973 20.3681 12.3141C19.6522 12.5088 18.929 12.6756 18.1837 12.8613C18.5572 13.3908 18.8915 13.8848 19.2519 14.3578C19.3204 14.4476 19.5056 14.5154 19.6151 14.4909C21.0964 14.1605 22.1994 15.1864 22.5044 16.4452C22.6421 17.0135 22.5167 17.6005 22.2639 18.1449C22.2224 18.2341 22.2257 18.3967 22.2796 18.4726C22.815 19.2266 23.3653 19.9695 23.9085 20.7116C25.4128 20.4523 26.2954 20.9195 26.8675 22.1433C27.3669 23.2117 27.0873 24.3929 26.0259 25.1926C25.0672 25.915 23.8236 25.788 23.0358 25.0983C22.0835 24.2645 21.8215 22.9822 22.5062 21.7863C22.21 21.3755 21.9177 20.9641 21.6192 20.5576C21.3358 20.1717 21.0459 19.7908 20.7934 19.4539C20.2052 19.4113 19.6477 19.371 19.0131 19.325C18.0805 20.2904 17.0603 21.3458 16.0409 22.402C15.6507 22.8064 15.263 23.2133 14.8732 23.6179C13.9659 24.5597 13.0508 25.4939 12.1612 26.4528C12.0718 26.5492 12.1045 26.7983 12.1317 26.968C12.3548 28.3612 12.0277 29.0553 10.977 29.7829C10.5153 30.1026 9.91816 30.1061 9.32084 30.0549ZM10.8455 24.5128C10.8309 24.7553 10.8163 24.9978 10.8004 25.2636C11.0337 25.0498 11.2686 24.8578 11.4772 24.6396C12.7255 23.334 13.9658 22.0206 15.2125 20.7135C16.0163 19.8707 16.8304 19.0381 17.6275 18.1888C17.707 18.1041 17.7412 17.9294 17.7262 17.8054C17.6423 17.1116 17.504 16.4208 17.901 15.7659C17.9475 15.6891 17.9237 15.5141 17.8665 15.4339C17.4307 14.8235 16.9651 14.2351 16.5387 13.6182C16.3844 13.3949 16.1999 13.3795 16.0011 13.4312C15.3115 13.6106 14.6283 13.8151 13.9407 14.0028C13.221 14.1993 12.4987 14.3854 11.7786 14.5804C11.5625 14.639 11.3569 14.7161 11.3411 15.0011C11.3207 15.37 11.2929 15.7385 11.2706 16.1074C11.1993 17.2858 11.1199 18.4638 11.0608 19.6428C10.9807 21.2424 10.9165 22.8428 10.8455 24.5128ZM6.74404 18.9367C7.49876 20.7029 8.25348 22.4692 9.05163 24.3371C9.09919 24.1221 9.13504 24.017 9.14414 23.9094C9.1954 23.3052 9.25494 22.7013 9.28435 22.0958C9.36369 20.4609 9.42813 18.8252 9.50173 17.19C9.51027 17.0013 9.5456 16.8139 9.55745 16.6251C9.58636 16.1655 9.60877 15.7054 9.63659 15.1934C9.27098 15.2843 8.95007 15.3638 8.62928 15.4441C8.03858 15.5918 7.44693 15.7359 6.85916 15.8951C6.80612 15.9095 6.74563 16.0224 6.7448 16.0903C6.73773 16.6573 6.42726 17.0807 6.12999 17.5118C6.33128 17.9644 6.53506 18.4226 6.74404 18.9367ZM11.6952 8.62441C11.6311 10.024 11.5671 11.4235 11.5018 12.8489C12.7493 12.5138 13.9634 12.1877 15.2448 11.8435C14.1284 10.3106 13.0722 8.86032 11.9497 7.31894C11.8688 7.50403 11.7903 7.61725 11.7715 7.73993C11.7301 8.00925 11.7188 8.28336 11.6952 8.62441ZM25.0226 23.7588C25.1037 23.6605 25.2386 23.5706 25.2548 23.4622C25.2889 23.2343 25.3241 22.9699 25.2428 22.7696C25.1295 22.4905 24.6583 22.3122 24.4181 22.4031C24.1533 22.5034 23.939 22.6743 23.8735 22.9808C23.7551 23.5355 24.3732 24.1511 25.0226 23.7588ZM26.9302 8.78973C26.5879 8.74627 26.3682 8.95139 26.2214 9.21501C26.0701 9.48669 26.0829 9.78422 26.2778 10.0494C26.4931 10.3422 26.8065 10.3758 27.1008 10.2802C27.3911 10.1859 27.5509 9.94806 27.563 9.59933C27.5784 9.15555 27.2843 8.98153 26.9302 8.78973ZM3.91857 15.1035C3.8695 15.1552 3.8165 15.2035 3.77205 15.2591C3.58506 15.4927 3.52825 15.9634 3.73266 16.1464C3.92513 16.3187 4.20747 16.5024 4.43842 16.4876C4.81837 16.4634 5.03926 16.1088 5.04027 15.7416C5.0419 15.1486 4.62179 14.8851 3.91857 15.1035ZM19.8523 17.6639C20.412 17.7143 20.8381 17.4758 20.7667 16.8395C20.7181 16.4066 20.3177 16.0761 19.9066 16.2034C19.6049 16.2967 19.3919 16.4907 19.3475 16.8107C19.2948 17.1903 19.4513 17.4748 19.8523 17.6639ZM10.8263 4.37586C10.6896 4.54578 10.4964 4.69503 10.4282 4.88994C10.2898 5.28584 10.4021 5.50086 10.7497 5.69424C11.0873 5.88205 11.3974 5.85434 11.6172 5.56671C11.7926 5.33719 11.9542 5.07912 11.7572 4.76353C11.484 4.32596 11.296 4.23672 10.8263 4.37586ZM9.58273 26.8255C9.22259 26.978 9.02909 27.2162 9.06665 27.6515C9.10594 28.1072 9.49702 28.4209 9.9286 28.2801C10.4039 28.1251 10.5383 27.7591 10.4904 27.427C10.4412 27.0867 10.0682 26.8154 9.58273 26.8255Z" fill="#0057FF"/>
<path d="M36.4635 18.8537H45.9304V20.6047H36.4635V18.8537ZM35.2715 24.9593H33.1855L40.0394 8.8313H42.4233L49.2771 24.9593H47.1912L41.2313 10.7667L35.2715 24.9593ZM54.7407 19.9827C51.8983 19.4911 50.4772 18.3622 50.4772 16.5958C50.4772 15.5974 50.8592 14.7756 51.6233 14.1305C52.3874 13.47 53.3425 13.1398 54.4886 13.1398C55.543 13.1398 56.4905 13.4316 57.331 14.0153C58.1867 14.599 58.798 15.3823 59.1648 16.3654L57.4227 16.9875C57.1629 16.3116 56.7732 15.7817 56.2536 15.3977C55.7493 15.0137 55.1763 14.8217 54.5344 14.8217C53.8926 14.8217 53.3577 14.983 52.9299 15.3055C52.5173 15.6281 52.311 16.0275 52.311 16.5036C52.311 16.9491 52.5173 17.31 52.9299 17.5865C53.3577 17.863 54.0378 18.0857 54.97 18.2547C57.9652 18.7769 59.4628 19.9596 59.4628 21.8028C59.4628 22.7705 59.0425 23.5846 58.202 24.2451C57.3768 24.8902 56.3682 25.2127 55.1763 25.2127C54.0607 25.2127 53.0445 24.9363 52.1276 24.3833C51.226 23.8303 50.5841 23.0854 50.2021 22.1484L51.8754 21.4342C52.1658 22.0947 52.5937 22.6169 53.1591 23.0009C53.7398 23.3849 54.3969 23.5769 55.1304 23.5769C55.8487 23.5769 56.4446 23.4156 56.9184 23.0931C57.3921 22.7551 57.629 22.3327 57.629 21.8259C57.629 20.935 56.6662 20.3206 54.7407 19.9827ZM65.7093 19.9827C62.8671 19.4911 61.4459 18.3622 61.4459 16.5958C61.4459 15.5974 61.8279 14.7756 62.592 14.1305C63.3561 13.47 64.311 13.1398 65.4572 13.1398C66.5116 13.1398 67.4591 13.4316 68.2996 14.0153C69.1553 14.599 69.7666 15.3823 70.1333 16.3654L68.3912 16.9875C68.1315 16.3116 67.7418 15.7817 67.2222 15.3977C66.7179 15.0137 66.1448 14.8217 65.503 14.8217C64.8612 14.8217 64.3263 14.983 63.8984 15.3055C63.486 15.6281 63.2797 16.0275 63.2797 16.5036C63.2797 16.9491 63.486 17.31 63.8984 17.5865C64.3263 17.863 65.0064 18.0857 65.9385 18.2547C68.9337 18.7769 70.4313 19.9596 70.4313 21.8028C70.4313 22.7705 70.0111 23.5846 69.1706 24.2451C68.3454 24.8902 67.3368 25.2127 66.1448 25.2127C65.0293 25.2127 64.0131 24.9363 63.0963 24.3833C62.1947 23.8303 61.5528 23.0854 61.1708 22.1484L62.8441 21.4342C63.1345 22.0947 63.5624 22.6169 64.1277 23.0009C64.7084 23.3849 65.3655 23.5769 66.099 23.5769C66.8172 23.5769 67.4132 23.4156 67.8869 23.0931C68.3607 22.7551 68.5975 22.3327 68.5975 21.8259C68.5975 20.935 67.6348 20.3206 65.7093 19.9827ZM72.5981 11.2044C72.3536 10.9587 72.2314 10.6591 72.2314 10.3059C72.2314 9.95258 72.3536 9.66074 72.5981 9.43034C72.8427 9.18458 73.133 9.0617 73.4692 9.0617C73.8207 9.0617 74.111 9.18458 74.3403 9.43034C74.5848 9.66074 74.707 9.95258 74.707 10.3059C74.707 10.6591 74.5848 10.9587 74.3403 11.2044C74.111 11.4348 73.8207 11.55 73.4692 11.55C73.133 11.55 72.8427 11.4348 72.5981 11.2044ZM72.5523 24.9593V13.4393H74.3861V24.9593H72.5523ZM81.1107 19.9827C78.2683 19.4911 76.8471 18.3622 76.8471 16.5958C76.8471 15.5974 77.2291 14.7756 77.9932 14.1305C78.7573 13.47 79.7124 13.1398 80.8585 13.1398C81.9129 13.1398 82.8604 13.4316 83.7009 14.0153C84.5567 14.599 85.1679 15.3823 85.5347 16.3654L83.7926 16.9875C83.5328 16.3116 83.1431 15.7817 82.6235 15.3977C82.1192 15.0137 81.5462 14.8217 80.9044 14.8217C80.2625 14.8217 79.7277 14.983 79.2998 15.3055C78.8872 15.6281 78.6809 16.0275 78.6809 16.5036C78.6809 16.9491 78.8872 17.31 79.2998 17.5865C79.7277 17.863 80.4077 18.0857 81.3399 18.2547C84.3351 18.7769 85.8327 19.9596 85.8327 21.8028C85.8327 22.7705 85.4124 23.5846 84.5719 24.2451C83.7467 24.8902 82.7382 25.2127 81.5462 25.2127C80.4306 25.2127 79.4144 24.9363 78.4975 24.3833C77.5959 23.8303 76.954 23.0854 76.572 22.1484L78.2453 21.4342C78.5357 22.0947 78.9636 22.6169 79.529 23.0009C80.1097 23.3849 80.7668 23.5769 81.5003 23.5769C82.2186 23.5769 82.8146 23.4156 83.2883 23.0931C83.762 22.7551 83.9989 22.3327 83.9989 21.8259C83.9989 20.935 83.0361 20.3206 81.1107 19.9827ZM93.1373 23.2083H94.6043V24.9593H92.8852C91.7696 24.9593 90.8909 24.6751 90.2491 24.1068C89.6072 23.5385 89.2863 22.7705 89.2863 21.8028V15.1443H87.1775V13.4393H89.2863V10.0755L91.1201 9.70682V13.4393H94.6043V15.1443H91.1201V21.3881C91.1201 22.6015 91.7925 23.2083 93.1373 23.2083ZM103.563 19.6371L100.285 20.0287C98.7418 20.2131 97.9701 20.8044 97.9701 21.8028C97.9701 22.3251 98.1841 22.7475 98.6119 23.07C99.0398 23.3772 99.6129 23.5308 100.331 23.5308C101.309 23.5308 102.089 23.239 102.669 22.6553C103.265 22.0716 103.563 21.3036 103.563 20.3513H104.365C104.365 21.7491 103.938 22.9087 103.082 23.8303C102.226 24.7519 101.156 25.2127 99.8727 25.2127C98.7877 25.2127 97.8861 24.9055 97.1678 24.2911C96.4649 23.6614 96.1134 22.855 96.1134 21.8719C96.1287 20.9196 96.4649 20.1439 97.122 19.5449C97.7944 18.9305 98.7189 18.5542 99.8956 18.4159L103.563 18.0012V17.5404C103.563 16.8339 103.288 16.2195 102.738 15.6972C102.188 15.175 101.515 14.9139 100.721 14.9139C100.003 14.9139 99.3684 15.1059 98.8182 15.4899C98.2681 15.8739 97.909 16.3731 97.7409 16.9875L96.0446 16.4345C96.335 15.4668 96.9004 14.6835 97.7409 14.0844C98.5814 13.4854 99.5365 13.1859 100.606 13.1859C101.905 13.1859 103.028 13.6006 103.976 14.43C104.923 15.2441 105.397 16.2195 105.397 17.3561V24.9593H103.563V19.6371ZM108.034 24.9593V13.4393H109.868V24.9593H108.034ZM116.011 24.9593V18.1395C116.011 17.1564 115.736 16.3807 115.186 15.8124C114.651 15.2441 113.948 14.9599 113.077 14.9599C112.19 14.9599 111.434 15.2748 110.807 15.9046C110.181 16.519 109.868 17.2639 109.868 18.1395H108.859C108.859 16.7878 109.317 15.6281 110.234 14.6604C111.151 13.6774 112.267 13.1859 113.581 13.1859C114.788 13.1859 115.797 13.6083 116.607 14.4531C117.432 15.2979 117.845 16.3961 117.845 17.7478V24.9593H116.011ZM125.327 23.2083H126.794V24.9593H125.075C123.96 24.9593 123.081 24.6751 122.439 24.1068C121.797 23.5385 121.476 22.7705 121.476 21.8028V15.1443H119.368V13.4393H121.476V10.0755L123.31 9.70682V13.4393H126.794V15.1443H123.31V21.3881C123.31 22.6015 123.983 23.2083 125.327 23.2083Z" fill="black"/>
<path d="M137.623 18.8537H147.09V20.6047H137.623V18.8537ZM136.431 24.9593H134.345L141.199 8.8313H143.582L150.436 24.9593H148.35L142.391 10.7667L136.431 24.9593ZM154.28 24.9593H152.446V8.8313H154.28V24.9593Z" fill="#0057FF"/>
</g>
</g>
<defs>
<clipPath id="clip0_481_53">
<rect width="156" height="32" fill="white"/>
</clipPath>
</defs>
</svg>
